<svg width="16" height="16" viewBox="0 0 16 16" fill="none" xmlns="http://www.w3.org/2000/svg">
<path d="M13.5999 8.00002C13.5999 8.44185 13.2417 8.80002 12.7999 8.80002H8.7999V12.8C8.7999 13.2419 8.44173 13.6 7.9999 13.6C7.55807 13.6 7.1999 13.2419 7.1999 12.8V8.80002H3.1999C2.75807 8.80002 2.3999 8.44185 2.3999 8.00002C2.3999 7.5582 2.75807 7.20002 3.1999 7.20002H7.1999V3.20002C7.1999 2.7582 7.55807 2.40002 7.9999 2.40002C8.44173 2.40002 8.7999 2.7582 8.7999 3.20002V7.20002H12.7999C13.2417 7.20002 13.5999 7.5582 13.5999 8.00002Z" />
</svg>
