<svg viewBox="0 0 20 16" fill="none" xmlns="http://www.w3.org/2000/svg">
  <path d="M6.44167 5.33331L13.1083 12H5C4.11594 12 3.2681 11.6488 2.64298 11.0237C2.01786 10.3985 1.66667 9.5507 1.66667 8.66665C1.66667 7.78259 2.01786 6.93474 2.64298 6.30962C3.2681 5.6845 4.11594 5.33331 5 5.33331H6.44167ZM2.5 1.39165L4.79167 3.66665C2.13333 3.79165 0 5.97498 0 8.66665C0 9.99273 0.526784 11.2645 1.46447 12.2022C2.40215 13.1399 3.67392 13.6666 5 13.6666H14.775L16.4417 15.3333L17.5 14.275L3.55833 0.333313L2.5 1.39165ZM16.125 5.35831C15.5583 2.49165 13.0333 0.333313 10 0.333313C8.75 0.333313 7.625 0.691646 6.66667 1.30831L7.875 2.52498C8.50833 2.19165 9.23333 1.99998 10 1.99998C11.2156 1.99998 12.3814 2.48287 13.2409 3.34241C14.1004 4.20195 14.5833 5.36774 14.5833 6.58331V6.99998H15.8333C16.4964 6.99998 17.1323 7.26337 17.6011 7.73221C18.0699 8.20105 18.3333 8.83694 18.3333 9.49998C18.3333 10.4416 17.8 11.2583 17.0333 11.6833L18.2417 12.8916C19.3 12.1333 20 10.9 20 9.49998C20 7.29998 18.2917 5.51665 16.125 5.35831Z" />
</svg>
  