<svg width="20" height="20" viewBox="0 0 20 20" fill="none" xmlns="http://www.w3.org/2000/svg">
  <path d="M10.0001 1.66669C5.41675 1.66669 1.66675 5.41669 1.66675 10C1.66675 14.5834 5.41675 18.3334 10.0001 18.3334C14.5834 18.3334 18.3334 14.5834 18.3334 10C18.3334 5.41669 14.5834 1.66669 10.0001 1.66669ZM10.0001 16.6667C6.32508 16.6667 3.33342 13.675 3.33342 10C3.33342 6.32502 6.32508 3.33335 10.0001 3.33335C13.6751 3.33335 16.6668 6.32502 16.6668 10C16.6668 13.675 13.6751 16.6667 10.0001 16.6667ZM13.8251 6.31669L8.33342 11.8084L6.17508 9.65835L5.00008 10.8334L8.33342 14.1667L15.0001 7.50002L13.8251 6.31669Z" />
</svg>
  