<svg viewBox="0 0 16 16" fill="none" xmlns="http://www.w3.org/2000/svg">
  <path d="M7.99984 6C8.53027 6 9.03898 6.21071 9.41405 6.58579C9.78912 6.96086 9.99984 7.46957 9.99984 8C9.99984 8.53043 9.78912 9.03914 9.41405 9.41421C9.03898 9.78929 8.53027 10 7.99984 10C7.4694 10 6.9607 9.78929 6.58562 9.41421C6.21055 9.03914 5.99984 8.53043 5.99984 8C5.99984 7.46957 6.21055 6.96086 6.58562 6.58579C6.9607 6.21071 7.4694 6 7.99984 6ZM7.99984 3C11.3332 3 14.1798 5.07333 15.3332 8C14.1798 10.9267 11.3332 13 7.99984 13C4.6665 13 1.81984 10.9267 0.666504 8C1.81984 5.07333 4.6665 3 7.99984 3ZM2.11984 8C3.21984 10.24 5.49317 11.6667 7.99984 11.6667C10.5065 11.6667 12.7798 10.24 13.8798 8C12.7798 5.76 10.5065 4.33333 7.99984 4.33333C5.49317 4.33333 3.21984 5.76 2.11984 8Z" />
</svg>
  