<svg viewBox="0 0 20 20" fill="none" xmlns="http://www.w3.org/2000/svg">
  <path d="M1.66659 4.39159L2.73325 3.33325L16.6666 17.2666L15.6082 18.3333L13.0416 15.7666C12.0833 16.0833 11.0666 16.2499 9.99992 16.2499C5.83325 16.2499 2.27492 13.6583 0.833252 9.99992C1.40825 8.53325 2.32492 7.24159 3.49158 6.21659L1.66659 4.39159ZM9.99992 7.49992C10.663 7.49992 11.2988 7.76331 11.7677 8.23215C12.2365 8.70099 12.4999 9.33688 12.4999 9.99992C12.4999 10.2916 12.4499 10.5749 12.3582 10.8333L9.16658 7.64159C9.42492 7.54992 9.70825 7.49992 9.99992 7.49992ZM9.99992 3.74992C14.1666 3.74992 17.7249 6.34159 19.1666 9.99992C18.4832 11.7333 17.3249 13.2333 15.8332 14.3249L14.6499 13.1333C15.7832 12.3499 16.7166 11.2833 17.3499 9.99992C15.9749 7.19992 13.1333 5.41659 9.99992 5.41659C9.09158 5.41659 8.19992 5.56659 7.36658 5.83325L6.08325 4.55825C7.28325 4.04159 8.60825 3.74992 9.99992 3.74992ZM2.64992 9.99992C4.02492 12.7999 6.86658 14.5833 9.99992 14.5833C10.5749 14.5833 11.1416 14.5249 11.6666 14.4083L9.76658 12.4999C8.57492 12.3749 7.62492 11.4249 7.49992 10.2333L4.66658 7.39158C3.84158 8.09992 3.14992 8.98325 2.64992 9.99992Z" />
</svg>
  