<svg viewBox="0 0 20 20" fill="none" xmlns="http://www.w3.org/2000/svg">
  <path
    d="M11.6667 6.66667H10.4167V10.8333L13.9833 12.95L14.5833 11.9417L11.6667 10.2083V6.66667ZM11.25 2.5C9.26088 2.5 7.35322 3.29018 5.9467 4.6967C4.54018 6.10322 3.75 8.01088 3.75 10H1.25L4.55 13.3583L7.91667 10H5.41667C5.41667 8.4529 6.03125 6.96917 7.12521 5.87521C8.21917 4.78125 9.7029 4.16667 11.25 4.16667C12.7971 4.16667 14.2808 4.78125 15.3748 5.87521C16.4688 6.96917 17.0833 8.4529 17.0833 10C17.0833 11.5471 16.4688 13.0308 15.3748 14.1248C14.2808 15.2188 12.7971 15.8333 11.25 15.8333C9.64167 15.8333 8.18333 15.175 7.13333 14.1167L5.95 15.3C7.30833 16.6667 9.16667 17.5 11.25 17.5C13.2391 17.5 15.1468 16.7098 16.5533 15.3033C17.9598 13.8968 18.75 11.9891 18.75 10C18.75 8.01088 17.9598 6.10322 16.5533 4.6967C15.1468 3.29018 13.2391 2.5 11.25 2.5Z" />
</svg>