<svg viewBox="0 0 20 20" fill="none" xmlns="http://www.w3.org/2000/svg">
  <path d="M10.0002 14.1666C9.07516 14.1666 8.3335 13.4166 8.3335 12.5C8.3335 11.575 9.07516 10.8333 10.0002 10.8333C10.4422 10.8333 10.8661 11.0089 11.1787 11.3215C11.4912 11.634 11.6668 12.058 11.6668 12.5C11.6668 12.942 11.4912 13.3659 11.1787 13.6785C10.8661 13.9911 10.4422 14.1666 10.0002 14.1666ZM15.0002 16.6666V8.33331H5.00016V16.6666H15.0002ZM15.0002 6.66665C15.4422 6.66665 15.8661 6.84224 16.1787 7.1548C16.4912 7.46736 16.6668 7.89129 16.6668 8.33331V16.6666C16.6668 17.1087 16.4912 17.5326 16.1787 17.8452C15.8661 18.1577 15.4422 18.3333 15.0002 18.3333H5.00016C4.07516 18.3333 3.3335 17.5833 3.3335 16.6666V8.33331C3.3335 7.40831 4.07516 6.66665 5.00016 6.66665H5.8335V4.99998C5.8335 3.89491 6.27248 2.8351 7.05388 2.0537C7.83529 1.2723 8.89509 0.833313 10.0002 0.833313C10.5473 0.833313 11.0892 0.941087 11.5947 1.15048C12.1002 1.35988 12.5595 1.66679 12.9464 2.0537C13.3333 2.44061 13.6403 2.89994 13.8497 3.40547C14.0591 3.91099 14.1668 4.45281 14.1668 4.99998V6.66665H15.0002ZM10.0002 2.49998C9.33712 2.49998 8.70124 2.76337 8.23239 3.23221C7.76355 3.70105 7.50016 4.33694 7.50016 4.99998V6.66665H12.5002V4.99998C12.5002 4.33694 12.2368 3.70105 11.7679 3.23221C11.2991 2.76337 10.6632 2.49998 10.0002 2.49998Z" />
</svg>
  