<svg viewBox="0 0 20 20" fill="none" xmlns="http://www.w3.org/2000/svg">
<path d="M5.83325 4.16667H17.4999V5.83333H5.83325V4.16667ZM5.83325 10.8333V9.16667H17.4999V10.8333H5.83325ZM3.33325 3.75C3.66477 3.75 3.98272 3.8817 4.21714 4.11612C4.45156 4.35054 4.58325 4.66848 4.58325 5C4.58325 5.33152 4.45156 5.64946 4.21714 5.88388C3.98272 6.1183 3.66477 6.25 3.33325 6.25C3.00173 6.25 2.68379 6.1183 2.44937 5.88388C2.21495 5.64946 2.08325 5.33152 2.08325 5C2.08325 4.66848 2.21495 4.35054 2.44937 4.11612C2.68379 3.8817 3.00173 3.75 3.33325 3.75ZM3.33325 8.75C3.66477 8.75 3.98272 8.8817 4.21714 9.11612C4.45156 9.35054 4.58325 9.66848 4.58325 10C4.58325 10.3315 4.45156 10.6495 4.21714 10.8839C3.98272 11.1183 3.66477 11.25 3.33325 11.25C3.00173 11.25 2.68379 11.1183 2.44937 10.8839C2.21495 10.6495 2.08325 10.3315 2.08325 10C2.08325 9.66848 2.21495 9.35054 2.44937 9.11612C2.68379 8.8817 3.00173 8.75 3.33325 8.75ZM5.83325 15.8333V14.1667H17.4999V15.8333H5.83325ZM3.33325 13.75C3.66477 13.75 3.98272 13.8817 4.21714 14.1161C4.45156 14.3505 4.58325 14.6685 4.58325 15C4.58325 15.3315 4.45156 15.6495 4.21714 15.8839C3.98272 16.1183 3.66477 16.25 3.33325 16.25C3.00173 16.25 2.68379 16.1183 2.44937 15.8839C2.21495 15.6495 2.08325 15.3315 2.08325 15C2.08325 14.6685 2.21495 14.3505 2.44937 14.1161C2.68379 13.8817 3.00173 13.75 3.33325 13.75Z"/>
</svg>
