<svg viewBox="0 0 20 20" fill="none" xmlns="http://www.w3.org/2000/svg">
<path d="M14.1667 5.83333H10.8334V7.41667H14.1667C15.5917 7.41667 16.7501 8.575 16.7501 10C16.7501 11.1917 15.9334 12.1917 14.8251 12.5L16.0417 13.7C17.4001 13.0083 18.3334 11.625 18.3334 10C18.3334 8.89493 17.8944 7.83512 17.113 7.05372C16.3316 6.27232 15.2718 5.83333 14.1667 5.83333ZM13.3334 9.16667H11.5084L13.1751 10.8333H13.3334V9.16667ZM1.66675 3.55833L4.25841 6.15C2.74175 6.76667 1.66675 8.25833 1.66675 10C1.66675 11.1051 2.10573 12.1649 2.88714 12.9463C3.66854 13.7277 4.72835 14.1667 5.83342 14.1667H9.16675V12.5833H5.83342C4.40841 12.5833 3.25008 11.425 3.25008 10C3.25008 8.675 4.25841 7.58333 5.55008 7.44167L7.27508 9.16667H6.66675V10.8333H8.94175L10.8334 12.725V14.1667H12.2751L15.6167 17.5L16.6667 16.45L2.72508 2.5L1.66675 3.55833Z"/>
</svg>
