<svg viewBox="0 0 20 20" fill="none" xmlns="http://www.w3.org/2000/svg">
<path d="M13.3333 9.99992C13.3333 9.55789 13.5088 9.13397 13.8214 8.82141C14.134 8.50885 14.5579 8.33325 14.9999 8.33325C15.4419 8.33325 15.8659 8.50885 16.1784 8.82141C16.491 9.13397 16.6666 9.55789 16.6666 9.99992C16.6666 10.4419 16.491 10.8659 16.1784 11.1784C15.8659 11.491 15.4419 11.6666 14.9999 11.6666C14.5579 11.6666 14.134 11.491 13.8214 11.1784C13.5088 10.8659 13.3333 10.4419 13.3333 9.99992ZM8.33325 9.99992C8.33325 9.55789 8.50885 9.13397 8.82141 8.82141C9.13397 8.50885 9.55789 8.33325 9.99992 8.33325C10.4419 8.33325 10.8659 8.50885 11.1784 8.82141C11.491 9.13397 11.6666 9.55789 11.6666 9.99992C11.6666 10.4419 11.491 10.8659 11.1784 11.1784C10.8659 11.491 10.4419 11.6666 9.99992 11.6666C9.55789 11.6666 9.13397 11.491 8.82141 11.1784C8.50885 10.8659 8.33325 10.4419 8.33325 9.99992ZM3.33325 9.99992C3.33325 9.55789 3.50885 9.13397 3.82141 8.82141C4.13397 8.50885 4.55789 8.33325 4.99992 8.33325C5.44195 8.33325 5.86587 8.50885 6.17843 8.82141C6.49099 9.13397 6.66658 9.55789 6.66658 9.99992C6.66658 10.4419 6.49099 10.8659 6.17843 11.1784C5.86587 11.491 5.44195 11.6666 4.99992 11.6666C4.55789 11.6666 4.13397 11.491 3.82141 11.1784C3.50885 10.8659 3.33325 10.4419 3.33325 9.99992Z" />
</svg>
