<svg viewBox="0 0 20 20" fill="none" xmlns="http://www.w3.org/2000/svg">
<path d="M12.05 13.2333L13.2333 12.05L15 13.825L16.7667 12.05L17.95 13.2333L16.175 15L17.95 16.7667L16.7667 17.95L15 16.175L13.2333 17.95L12.05 16.7667L13.825 15L12.05 13.2333ZM4.16667 2.5H15.8333C16.7583 2.5 17.5 3.24167 17.5 4.16667V10.6667C16.9917 10.375 16.4333 10.1667 15.8333 10.0667V4.16667H4.16667V15.8333H10.0667C10.1667 16.4333 10.375 16.9917 10.6667 17.5H4.16667C3.24167 17.5 2.5 16.7583 2.5 15.8333V4.16667C2.5 3.24167 3.24167 2.5 4.16667 2.5ZM5.83333 5.83333H14.1667V7.5H5.83333V5.83333ZM5.83333 9.16667H14.1667V10.0667C13.4583 10.1833 12.8083 10.45 12.2333 10.8333H5.83333V9.16667ZM5.83333 12.5H10V14.1667H5.83333V12.5Z"/>
</svg>
