<svg viewBox="0 0 20 20" fill="none" xmlns="http://www.w3.org/2000/svg">
  <rect opacity="0.36" x="1" y="1" width="18" height="18" rx="9" fill="#BBBEC4" />
  <path
    d="M6.6665 12H7.99984C7.99984 12.72 8.91317 13.3333 9.99984 13.3333C11.0865 13.3333 11.9998 12.72 11.9998 12C11.9998 11.2667 11.3065 11 9.83984 10.6467C8.4265 10.2933 6.6665 9.85333 6.6665 8C6.6665 6.80667 7.6465 5.79333 8.99984 5.45333V4H10.9998V5.45333C12.3532 5.79333 13.3332 6.80667 13.3332 8H11.9998C11.9998 7.28 11.0865 6.66667 9.99984 6.66667C8.91317 6.66667 7.99984 7.28 7.99984 8C7.99984 8.73333 8.69317 9 10.1598 9.35333C11.5732 9.70667 13.3332 10.1467 13.3332 12C13.3332 13.1933 12.3532 14.2067 10.9998 14.5467V16H8.99984V14.5467C7.6465 14.2067 6.6665 13.1933 6.6665 12Z"
    fill="#72767E" />
</svg>