<svg viewBox="0 0 20 20" fill="none" xmlns="http://www.w3.org/2000/svg">
<path d="M10 2.5C8.01088 2.5 6.10322 3.29018 4.6967 4.6967C3.29018 6.10322 2.5 8.01088 2.5 10H0L3.33333 13.3333L6.66667 10H4.16667C4.16667 8.4529 4.78125 6.96917 5.87521 5.87521C6.96917 4.78125 8.4529 4.16667 10 4.16667C11.5471 4.16667 13.0308 4.78125 14.1248 5.87521C15.2188 6.96917 15.8333 8.4529 15.8333 10C15.8333 11.5471 15.2188 13.0308 14.1248 14.1248C13.0308 15.2188 11.5471 15.8333 10 15.8333C8.75 15.8333 7.575 15.4167 6.61667 14.75L5.41667 15.95C6.7 16.9167 8.28333 17.5 10 17.5C11.9891 17.5 13.8968 16.7098 15.3033 15.3033C16.7098 13.8968 17.5 11.9891 17.5 10C17.5 8.01088 16.7098 6.10322 15.3033 4.6967C13.8968 3.29018 11.9891 2.5 10 2.5ZM11.6667 10C11.6667 9.55797 11.4911 9.13405 11.1785 8.82149C10.8659 8.50893 10.442 8.33333 10 8.33333C9.55797 8.33333 9.13405 8.50893 8.82149 8.82149C8.50893 9.13405 8.33333 9.55797 8.33333 10C8.33333 10.442 8.50893 10.866 8.82149 11.1785C9.13405 11.4911 9.55797 11.6667 10 11.6667C10.442 11.6667 10.8659 11.4911 11.1785 11.1785C11.4911 10.866 11.6667 10.442 11.6667 10Z" />
</svg>
