<svg viewBox="0 0 20 20" fill="none" xmlns="http://www.w3.org/2000/svg">
  <path d="M15.8333 2.5H4.16667C3.24167 2.5 2.5 3.24167 2.5 4.16667V7.5H4.16667V4.16667H15.8333V15.8333H4.16667V12.5H2.5V15.8333C2.5 16.2754 2.67559 16.6993 2.98816 17.0118C3.30072 17.3244 3.72464 17.5 4.16667 17.5H15.8333C16.2754 17.5 16.6993 17.3244 17.0118 17.0118C17.3244 16.6993 17.5 16.2754 17.5 15.8333V4.16667C17.5 3.24167 16.75 2.5 15.8333 2.5ZM8.4 12.9833L9.58333 14.1667L13.75 10L9.58333 5.83333L8.4 7.00833L10.5583 9.16667H2.5V10.8333H10.5583L8.4 12.9833Z" />
</svg>
  