<svg viewBox="0 0 20 20" fill="none" xmlns="http://www.w3.org/2000/svg">
  <path d="M10.8333 15.8333H11.6666C11.8876 15.8333 12.0996 15.9211 12.2559 16.0774C12.4122 16.2337 12.5 16.4457 12.5 16.6667H18.3333V18.3333H12.5C12.5 18.5543 12.4122 18.7663 12.2559 18.9226C12.0996 19.0789 11.8876 19.1667 11.6666 19.1667H8.33329C8.11228 19.1667 7.90032 19.0789 7.74404 18.9226C7.58776 18.7663 7.49996 18.5543 7.49996 18.3333H1.66663V16.6667H7.49996C7.49996 16.4457 7.58776 16.2337 7.74404 16.0774C7.90032 15.9211 8.11228 15.8333 8.33329 15.8333H9.16663V14.1667H3.33329C3.11228 14.1667 2.90032 14.0789 2.74404 13.9226C2.58776 13.7663 2.49996 13.5543 2.49996 13.3333V10C2.49996 9.77899 2.58776 9.56702 2.74404 9.41074C2.90032 9.25446 3.11228 9.16667 3.33329 9.16667H16.6666C16.8876 9.16667 17.0996 9.25446 17.2559 9.41074C17.4122 9.56702 17.5 9.77899 17.5 10V13.3333C17.5 13.5543 17.4122 13.7663 17.2559 13.9226C17.0996 14.0789 16.8876 14.1667 16.6666 14.1667H10.8333V15.8333ZM3.33329 2.5H16.6666C16.8876 2.5 17.0996 2.5878 17.2559 2.74408C17.4122 2.90036 17.5 3.11232 17.5 3.33333V6.66667C17.5 6.88768 17.4122 7.09964 17.2559 7.25592C17.0996 7.4122 16.8876 7.5 16.6666 7.5H3.33329C3.11228 7.5 2.90032 7.4122 2.74404 7.25592C2.58776 7.09964 2.49996 6.88768 2.49996 6.66667V3.33333C2.49996 3.11232 2.58776 2.90036 2.74404 2.74408C2.90032 2.5878 3.11228 2.5 3.33329 2.5ZM7.49996 5.83333H8.33329V4.16667H7.49996V5.83333ZM7.49996 12.5H8.33329V10.8333H7.49996V12.5ZM4.16663 4.16667V5.83333H5.83329V4.16667H4.16663ZM4.16663 10.8333V12.5H5.83329V10.8333H4.16663Z" />
</svg>
  