<svg viewBox="0 0 20 20" fill="none" xmlns="http://www.w3.org/2000/svg">
  <path
    d="M10.1035 12.8875C10.0399 12.8491 9.96028 12.8491 9.89672 12.8875L7.27153 14.4724C7.12022 14.5637 6.93347 14.4283 6.9733 14.2561L7.66462 11.2674C7.68131 11.1952 7.65676 11.1197 7.60082 11.0712L5.283 9.06056C5.14938 8.94465 5.22096 8.72509 5.39722 8.7102L8.45479 8.45191C8.52877 8.44566 8.5932 8.39895 8.62214 8.33058L9.8159 5.51022C9.88478 5.3475 10.1154 5.3475 10.1843 5.51022L11.378 8.33058C11.407 8.39895 11.4714 8.44566 11.5454 8.45191L14.6029 8.7102C14.7792 8.72509 14.8508 8.94465 14.7172 9.06057L12.3993 11.0712C12.3434 11.1197 12.3189 11.1952 12.3355 11.2674L13.0269 14.2561C13.0667 14.4283 12.8799 14.5637 12.7286 14.4724L10.1035 12.8875ZM17.9751 8.01046C18.1089 7.89462 18.0374 7.67496 17.8611 7.66001L12.4619 7.20194C12.388 7.19567 12.3236 7.149 12.2947 7.08071L10.1842 2.10122C10.1153 1.93862 9.88486 1.93862 9.81594 2.10122L7.70548 7.08071C7.67653 7.149 7.61216 7.19567 7.53824 7.20194L2.13848 7.66006C1.96228 7.67501 1.89074 7.89448 2.02429 8.01039L6.11748 11.5628C6.17343 11.6114 6.19795 11.6869 6.18122 11.759L4.95694 17.0392C4.91701 17.2114 5.10377 17.347 5.25512 17.2556L9.89674 14.4541C9.96029 14.4158 10.0399 14.4158 10.1034 14.4541L14.7443 17.2552C14.8957 17.3466 15.0826 17.2108 15.0424 17.0385L13.8108 11.7593C13.794 11.687 13.8185 11.6113 13.8747 11.5627L17.9751 8.01046Z" />
</svg>