<svg viewBox="0 0 18 18" fill="none" xmlns="http://www.w3.org/2000/svg">
<path d="M1.8 0.600098H16.2C16.6774 0.600098 17.1352 0.786413 17.4728 1.11806C17.8104 1.4497 18 1.8995 18 2.36852V15.6317C18 16.1007 17.8104 16.5505 17.4728 16.8821C17.1352 17.2138 16.6774 17.4001 16.2 17.4001H1.8C1.32261 17.4001 0.864773 17.2138 0.527208 16.8821C0.189642 16.5505 0 16.1007 0 15.6317V2.36852C0 1.8995 0.189642 1.4497 0.527208 1.11806C0.864773 0.786413 1.32261 0.600098 1.8 0.600098ZM1.8 4.13694V6.78957H5.4V4.13694H1.8ZM7.2 4.13694V6.78957H10.8V4.13694H7.2ZM16.2 6.78957V4.13694H12.6V6.78957H16.2ZM1.8 8.55799V11.2106H5.4V8.55799H1.8ZM1.8 15.6317H5.4V12.979H1.8V15.6317ZM7.2 8.55799V11.2106H10.8V8.55799H7.2ZM7.2 15.6317H10.8V12.979H7.2V15.6317ZM16.2 15.6317V12.979H12.6V15.6317H16.2ZM16.2 8.55799H12.6V11.2106H16.2V8.55799Z" />
</svg>
