<svg width="20" height="20" viewBox="0 0 20 20" fill="none" xmlns="http://www.w3.org/2000/svg">
<path d="M10.0001 12.9167C9.22656 12.9167 8.4847 12.6095 7.93772 12.0625C7.39073 11.5155 7.08344 10.7736 7.08344 10.0001C7.08344 9.22653 7.39073 8.48467 7.93772 7.93769C8.4847 7.39071 9.22656 7.08342 10.0001 7.08342C10.7737 7.08342 11.5155 7.39071 12.0625 7.93769C12.6095 8.48467 12.9168 9.22653 12.9168 10.0001C12.9168 10.7736 12.6095 11.5155 12.0625 12.0625C11.5155 12.6095 10.7737 12.9167 10.0001 12.9167ZM16.1918 10.8084C16.2251 10.5417 16.2501 10.2751 16.2501 10.0001C16.2501 9.72508 16.2251 9.45008 16.1918 9.16675L17.9501 7.80841C18.1084 7.68341 18.1501 7.45841 18.0501 7.27508L16.3834 4.39175C16.2834 4.20841 16.0584 4.13341 15.8751 4.20842L13.8001 5.04175C13.3668 4.71675 12.9168 4.43341 12.3918 4.22508L12.0834 2.01675C12.0501 1.81675 11.8751 1.66675 11.6668 1.66675H8.33344C8.12511 1.66675 7.95011 1.81675 7.91678 2.01675L7.60844 4.22508C7.08344 4.43341 6.63344 4.71675 6.20011 5.04175L4.12511 4.20842C3.94178 4.13341 3.71678 4.20841 3.61678 4.39175L1.95011 7.27508C1.84178 7.45841 1.89178 7.68341 2.05011 7.80841L3.80844 9.16675C3.77511 9.45008 3.75011 9.72508 3.75011 10.0001C3.75011 10.2751 3.77511 10.5417 3.80844 10.8084L2.05011 12.1917C1.89178 12.3167 1.84178 12.5417 1.95011 12.7251L3.61678 15.6084C3.71678 15.7917 3.94178 15.8584 4.12511 15.7917L6.20011 14.9501C6.63344 15.2834 7.08344 15.5667 7.60844 15.7751L7.91678 17.9834C7.95011 18.1834 8.12511 18.3334 8.33344 18.3334H11.6668C11.8751 18.3334 12.0501 18.1834 12.0834 17.9834L12.3918 15.7751C12.9168 15.5584 13.3668 15.2834 13.8001 14.9501L15.8751 15.7917C16.0584 15.8584 16.2834 15.7917 16.3834 15.6084L18.0501 12.7251C18.1501 12.5417 18.1084 12.3167 17.9501 12.1917L16.1918 10.8084Z" fill="#72767E"/>
</svg>
