<svg viewBox="0 0 20 20" fill="none" xmlns="http://www.w3.org/2000/svg">
  <path d="M9.99992 15C8.67384 15 7.40207 14.4732 6.46438 13.5355C5.5267 12.5978 4.99992 11.3261 4.99992 9.99998C4.99992 9.16665 5.20825 8.35831 5.58325 7.66665L4.36659 6.44998C3.71659 7.47498 3.33325 8.69165 3.33325 9.99998C3.33325 11.7681 4.03563 13.4638 5.28587 14.714C6.53612 15.9643 8.23181 16.6666 9.99992 16.6666V19.1666L13.3333 15.8333L9.99992 12.5V15ZM9.99992 3.33331V0.833313L6.66658 4.16665L9.99992 7.49998V4.99998C11.326 4.99998 12.5978 5.52676 13.5355 6.46445C14.4731 7.40213 14.9999 8.6739 14.9999 9.99998C14.9999 10.8333 14.7916 11.6416 14.4166 12.3333L15.6333 13.55C16.2833 12.525 16.6666 11.3083 16.6666 9.99998C16.6666 8.23187 15.9642 6.53618 14.714 5.28593C13.4637 4.03569 11.768 3.33331 9.99992 3.33331Z" />
</svg>
  