<svg viewBox="0 0 20 20" fill="none" xmlns="http://www.w3.org/2000/svg">
<path d="M12.4728 11.7841L10.4352 6.35376C10.2886 5.98329 10.1419 5.51532 9.99522 4.94986C9.92507 5.22934 9.85173 5.48932 9.7752 5.72981C9.70505 5.97029 9.6349 6.18477 9.56475 6.37326L7.53679 11.7841H12.4728ZM16.5 17H14.9312C14.7526 17 14.606 16.9545 14.4912 16.8635C14.3764 16.7725 14.2935 16.6555 14.2425 16.5125L13.0276 13.266H6.97241L5.75754 16.5125C5.7129 16.636 5.63 16.7498 5.50883 16.8538C5.38766 16.9513 5.24099 17 5.0688 17H3.5L8.97167 3H11.0283L16.5 17Z" fill="#72767E"/>
</svg>
