<svg viewBox="0 0 20 20" fill="none" xmlns="http://www.w3.org/2000/svg">
<path d="M10 18C8.94943 18 7.90914 17.7931 6.93853 17.391C5.96793 16.989 5.08601 16.3997 4.34315 15.6569C2.84285 14.1566 2 12.1217 2 10C2 7.87827 2.84285 5.84344 4.34315 4.34315C5.84344 2.84285 7.87827 2 10 2C14.4 2 18 5.2 18 9.2C18 10.473 17.4943 11.6939 16.5941 12.5941C15.6939 13.4943 14.473 14 13.2 14H11.76C11.52 14 11.36 14.16 11.36 14.4C11.36 14.48 11.44 14.56 11.44 14.64C11.76 15.04 11.92 15.52 11.92 16C12 17.12 11.12 18 10 18ZM10 3.6C8.30261 3.6 6.67475 4.27428 5.47452 5.47452C4.27428 6.67475 3.6 8.30261 3.6 10C3.6 11.6974 4.27428 13.3253 5.47452 14.5255C6.67475 15.7257 8.30261 16.4 10 16.4C10.24 16.4 10.4 16.24 10.4 16C10.4 15.84 10.32 15.76 10.32 15.68C10 15.28 9.84 14.88 9.84 14.4C9.84 13.28 10.72 12.4 11.84 12.4H13.2C14.0487 12.4 14.8626 12.0629 15.4627 11.4627C16.0629 10.8626 16.4 10.0487 16.4 9.2C16.4 6.08 13.52 3.6 10 3.6ZM5.6 8.4C6.24 8.4 6.8 8.96 6.8 9.6C6.8 10.24 6.24 10.8 5.6 10.8C4.96 10.8 4.4 10.24 4.4 9.6C4.4 8.96 4.96 8.4 5.6 8.4ZM8 5.2C8.64 5.2 9.2 5.76 9.2 6.4C9.2 7.04 8.64 7.6 8 7.6C7.36 7.6 6.8 7.04 6.8 6.4C6.8 5.76 7.36 5.2 8 5.2ZM12 5.2C12.64 5.2 13.2 5.76 13.2 6.4C13.2 7.04 12.64 7.6 12 7.6C11.36 7.6 10.8 7.04 10.8 6.4C10.8 5.76 11.36 5.2 12 5.2ZM14.4 8.4C15.04 8.4 15.6 8.96 15.6 9.6C15.6 10.24 15.04 10.8 14.4 10.8C13.76 10.8 13.2 10.24 13.2 9.6C13.2 8.96 13.76 8.4 14.4 8.4Z" />
</svg>
