<svg viewBox="0 0 24 24" fill="none" xmlns="http://www.w3.org/2000/svg">
<path d="M16.2 7.8H20.4V16.2H16.2V17.88C16.2 18.1028 16.2885 18.3164 16.446 18.474C16.6035 18.6315 16.8172 18.72 17.04 18.72H18.72V20.4H16.62C16.158 20.4 15.36 20.022 15.36 19.56C15.36 20.022 14.562 20.4 14.1 20.4H12V18.72H13.68C13.9028 18.72 14.1164 18.6315 14.2739 18.474C14.4315 18.3164 14.52 18.1028 14.52 17.88V6.12C14.52 5.89722 14.4315 5.68356 14.2739 5.52603C14.1164 5.3685 13.9028 5.28 13.68 5.28H12V3.6H14.1C14.562 3.6 15.36 3.978 15.36 4.44C15.36 3.978 16.158 3.6 16.62 3.6H18.72V5.28H17.04C16.8172 5.28 16.6035 5.3685 16.446 5.52603C16.2885 5.68356 16.2 5.89722 16.2 6.12V7.8ZM3.59998 7.8H12.84V9.48H5.27998V14.52H12.84V16.2H3.59998V7.8ZM18.72 14.52V9.48H16.2V14.52H18.72ZM9.05998 12C9.05998 11.6658 8.92723 11.3453 8.69093 11.109C8.45463 10.8727 8.13415 10.74 7.79998 10.74C7.4658 10.74 7.14532 10.8727 6.90902 11.109C6.67273 11.3453 6.53998 11.6658 6.53998 12C6.53998 12.3342 6.67273 12.6547 6.90902 12.891C7.14532 13.1272 7.4658 13.26 7.79998 13.26C8.13415 13.26 8.45463 13.1272 8.69093 12.891C8.92723 12.6547 9.05998 12.3342 9.05998 12ZM12.84 11.0676C12.3276 10.5972 11.5296 10.6392 11.0592 11.16C10.5888 11.664 10.6308 12.462 11.16 12.9324C11.622 13.3692 12.3612 13.3692 12.84 12.9324V11.0676Z" />
</svg>
