<svg viewBox="0 0 20 20" fill="none" xmlns="http://www.w3.org/2000/svg">
<path d="M15.8334 17.4999V15.8333H12.5001V14.1666H15.8334V12.4999L18.3334 14.9999L15.8334 17.4999ZM10.8334 14.9999C10.8334 15.5916 10.9584 16.1583 11.1834 16.6666H1.66675V14.1666C1.66675 12.3249 4.65008 10.8333 8.33341 10.8333C9.16675 10.8333 9.96675 10.9083 10.7084 11.0499C11.4001 11.1833 12.0334 11.3666 12.5917 11.5999C11.5251 12.3583 10.8334 13.5999 10.8334 14.9999ZM3.33341 14.1666V14.9999H9.16675C9.16675 14.1333 9.35841 13.3083 9.70008 12.5666L8.33341 12.4999C5.57508 12.4999 3.33341 13.2499 3.33341 14.1666ZM8.33341 3.33325C9.21747 3.33325 10.0653 3.68444 10.6904 4.30956C11.3156 4.93468 11.6667 5.78253 11.6667 6.66659C11.6667 7.55064 11.3156 8.39849 10.6904 9.02361C10.0653 9.64873 9.21747 9.99992 8.33341 9.99992C7.44936 9.99992 6.60151 9.64873 5.97639 9.02361C5.35127 8.39849 5.00008 7.55064 5.00008 6.66659C5.00008 5.78253 5.35127 4.93468 5.97639 4.30956C6.60151 3.68444 7.44936 3.33325 8.33341 3.33325ZM8.33341 4.99992C7.89139 4.99992 7.46746 5.17551 7.1549 5.48807C6.84234 5.80063 6.66675 6.22456 6.66675 6.66659C6.66675 7.10861 6.84234 7.53254 7.1549 7.8451C7.46746 8.15766 7.89139 8.33325 8.33341 8.33325C8.77544 8.33325 9.19936 8.15766 9.51193 7.8451C9.82449 7.53254 10.0001 7.10861 10.0001 6.66659C10.0001 6.22456 9.82449 5.80063 9.51193 5.48807C9.19936 5.17551 8.77544 4.99992 8.33341 4.99992Z" />
</svg>
