<svg viewBox="0 0 20 20" fill="none" xmlns="http://www.w3.org/2000/svg">
<path fill-rule="evenodd" clip-rule="evenodd" d="M12.3333 12.3333H15.4444V4.55556H4.55556V12.3333H7.66667C7.66667 12.9522 7.9125 13.5457 8.35008 13.9832C8.78767 14.4208 9.38116 14.6667 10 14.6667C10.6188 14.6667 11.2123 14.4208 11.6499 13.9832C12.0875 13.5457 12.3333 12.9522 12.3333 12.3333ZM4.55556 3H15.4444C15.857 3 16.2527 3.16389 16.5444 3.45561C16.8361 3.74733 17 4.143 17 4.55556V15.4444C17 15.857 16.8361 16.2527 16.5444 16.5444C16.2527 16.8361 15.857 17 15.4444 17H4.55556C4.143 17 3.74733 16.8361 3.45561 16.5444C3.16389 16.2527 3 15.857 3 15.4444V4.55556C3 3.7 3.69222 3 4.55556 3ZM8.44442 8.91667L6.88886 8.91667L9.99997 5.80555L13.1111 8.91667H11.5555V11.25H8.44442V8.91667Z" />
</svg>
