<svg viewBox="0 0 20 20" fill="none" xmlns="http://www.w3.org/2000/svg">
  <path
    d="M10 3C10.9283 3 11.8185 3.36875 12.4749 4.02513C13.1313 4.6815 13.5 5.57174 13.5 6.5C13.5 7.42826 13.1313 8.3185 12.4749 8.97487C11.8185 9.63125 10.9283 10 10 10C9.07174 10 8.1815 9.63125 7.52513 8.97487C6.86875 8.3185 6.5 7.42826 6.5 6.5C6.5 5.57174 6.86875 4.6815 7.52513 4.02513C8.1815 3.36875 9.07174 3 10 3ZM10 4.75C9.53587 4.75 9.09075 4.93437 8.76256 5.26256C8.43437 5.59075 8.25 6.03587 8.25 6.5C8.25 6.96413 8.43437 7.40925 8.76256 7.73744C9.09075 8.06563 9.53587 8.25 10 8.25C10.4641 8.25 10.9092 8.06563 11.2374 7.73744C11.5656 7.40925 11.75 6.96413 11.75 6.5C11.75 6.03587 11.5656 5.59075 11.2374 5.26256C10.9092 4.93437 10.4641 4.75 10 4.75ZM10 10.875C12.3363 10.875 17 12.0387 17 14.375V17H3V14.375C3 12.0387 7.66375 10.875 10 10.875ZM10 12.5375C7.40125 12.5375 4.6625 13.815 4.6625 14.375V15.3375H15.3375V14.375C15.3375 13.815 12.5988 12.5375 10 12.5375Z" />
</svg>