<svg width="12" height="12" viewBox="0 0 12 12" fill="none" xmlns="http://www.w3.org/2000/svg">
<path d="M11.2457 1.92913C11.5701 1.60466 11.5701 1.07859 11.2457 0.754126C10.9212 0.429659 10.3951 0.429659 10.0707 0.754126L5.99984 4.82496L1.929 0.754126C1.60454 0.429659 1.07847 0.429659 0.754004 0.754126C0.429537 1.07859 0.429537 1.60466 0.754004 1.92913L4.82484 5.99996L0.754004 10.0708C0.429537 10.3953 0.429537 10.9213 0.754004 11.2458C1.07847 11.5703 1.60454 11.5703 1.929 11.2458L5.99984 7.17496L10.0707 11.2458C10.3951 11.5703 10.9212 11.5703 11.2457 11.2458C11.5701 10.9213 11.5701 10.3953 11.2457 10.0708L7.17484 5.99996L11.2457 1.92913Z"/>
</svg>
