<svg width="16" height="16" viewBox="0 0 16 16" fill="none" xmlns="http://www.w3.org/2000/svg">
  <path d="M12.5833 8C12.2518 8 11.9339 7.8683 11.6995 7.63388C11.465 7.39946 11.3333 7.08152 11.3333 6.75C11.3333 6.41848 11.465 6.10054 11.6995 5.86612C11.9339 5.6317 12.2518 5.5 12.5833 5.5C12.9149 5.5 13.2328 5.6317 13.4672 5.86612C13.7016 6.10054 13.8333 6.41848 13.8333 6.75C13.8333 7.08152 13.7016 7.39946 13.4672 7.63388C13.2328 7.8683 12.9149 8 12.5833 8ZM10.0833 4.66667C9.75181 4.66667 9.43387 4.53497 9.19945 4.30055C8.96503 4.06613 8.83333 3.74819 8.83333 3.41667C8.83333 3.08515 8.96503 2.7672 9.19945 2.53278C9.43387 2.29836 9.75181 2.16667 10.0833 2.16667C10.4149 2.16667 10.7328 2.29836 10.9672 2.53278C11.2016 2.7672 11.3333 3.08515 11.3333 3.41667C11.3333 3.74819 11.2016 4.06613 10.9672 4.30055C10.7328 4.53497 10.4149 4.66667 10.0833 4.66667ZM5.91667 4.66667C5.58515 4.66667 5.2672 4.53497 5.03278 4.30055C4.79836 4.06613 4.66667 3.74819 4.66667 3.41667C4.66667 3.08515 4.79836 2.7672 5.03278 2.53278C5.2672 2.29836 5.58515 2.16667 5.91667 2.16667C6.24819 2.16667 6.56613 2.29836 6.80055 2.53278C7.03497 2.7672 7.16667 3.08515 7.16667 3.41667C7.16667 3.74819 7.03497 4.06613 6.80055 4.30055C6.56613 4.53497 6.24819 4.66667 5.91667 4.66667ZM3.41667 8C3.08515 8 2.7672 7.8683 2.53278 7.63388C2.29836 7.39946 2.16667 7.08152 2.16667 6.75C2.16667 6.41848 2.29836 6.10054 2.53278 5.86612C2.7672 5.6317 3.08515 5.5 3.41667 5.5C3.74819 5.5 4.06613 5.6317 4.30055 5.86612C4.53497 6.10054 4.66667 6.41848 4.66667 6.75C4.66667 7.08152 4.53497 7.39946 4.30055 7.63388C4.06613 7.8683 3.74819 8 3.41667 8ZM8 0.5C6.01088 0.5 4.10322 1.29018 2.6967 2.6967C1.29018 4.10322 0.5 6.01088 0.5 8C0.5 9.98912 1.29018 11.8968 2.6967 13.3033C4.10322 14.7098 6.01088 15.5 8 15.5C8.33152 15.5 8.64946 15.3683 8.88388 15.1339C9.1183 14.8995 9.25 14.5815 9.25 14.25C9.25 13.925 9.125 13.6333 8.925 13.4167C8.73333 13.1917 8.60833 12.9 8.60833 12.5833C8.60833 12.2518 8.74003 11.9339 8.97445 11.6995C9.20887 11.465 9.52681 11.3333 9.85833 11.3333H11.3333C12.4384 11.3333 13.4982 10.8943 14.2796 10.1129C15.061 9.33154 15.5 8.27174 15.5 7.16667C15.5 3.48333 12.1417 0.5 8 0.5Z" fill="#FFF"/>
</svg>
