<?xml version="1.0" standalone="no"?>
<!DOCTYPE svg PUBLIC "-//W3C//DTD SVG 20010904//EN"
 "http://www.w3.org/TR/2001/REC-SVG-20010904/DTD/svg10.dtd">
<svg version="1.0" xmlns="http://www.w3.org/2000/svg"
 width="16.000000pt" height="16.000000pt" viewBox="0 0 16.000000 16.000000"
 preserveAspectRatio="xMidYMid meet">
<metadata>
Created by potrace 1.11, written by Peter Selinger 2001-2013
</metadata>
<g transform="translate(0.000000,16.000000) scale(0.003200,-0.003200)"
fill="#000000" stroke="none">
<path d="M230 2490 l0 -2270 2270 0 2270 0 0 2270 0 2270 -2270 0 -2270 0 0
-2270z m4340 0 l0 -2070 -2070 0 -2070 0 0 2070 0 2070 2070 0 2070 0 0 -2070z"/>
<path d="M2368 3475 c-2 -1 -23 -5 -48 -8 -298 -37 -515 -205 -603 -467 -14
-41 -29 -91 -33 -110 -4 -19 -9 -328 -11 -687 l-4 -651 168 1 168 2 2 606 c2
648 4 683 54 782 82 162 231 240 449 234 255 -7 412 -140 454 -387 3 -14 5
-298 5 -632 l1 -606 168 1 167 2 0 645 c-1 634 -1 646 -23 730 -81 306 -261
468 -597 535 -31 7 -311 15 -317 10z"/>
</g>
</svg>
