<svg width="148" height="25" viewBox="0 0 148 25" fill="none" xmlns="http://www.w3.org/2000/svg">
  <path fill-rule="evenodd" clip-rule="evenodd" d="M0 5C0 2.23858 2.24215 0 5.00799 0H20.032C22.7978 0 25.04 2.23858 25.04 5V20C25.04 22.7614 22.7978 25 20.032 25H5.00799C2.24215 25 0 22.7614 0 20V5ZM5.00799 2.1875H20.032C21.5878 2.1875 22.849 3.4467 22.849 5V20C22.849 21.5533 21.5878 22.8125 20.032 22.8125H5.00799C3.45221 22.8125 2.191 21.5533 2.191 20V5C2.191 3.4467 3.45221 2.1875 5.00799 2.1875ZM15.1655 11.8728V17.7266H17.3523V11.8728C17.3523 9.22767 15.1494 7.08335 12.4321 7.08335C9.71481 7.08335 7.51199 9.22767 7.51199 11.8728V17.7266H9.69872V11.8728C9.69872 10.4033 10.9225 9.212 12.4321 9.212C13.9417 9.212 15.1655 10.4033 15.1655 11.8728ZM72.6009 17.7209H74.4353V6H72.5044V11.2248H72.4561C72.3596 11.1008 72.2362 10.9716 72.086 10.8372C71.9358 10.7028 71.7535 10.5788 71.5389 10.4651C71.3351 10.3514 71.0937 10.2584 70.8148 10.186C70.5359 10.1034 70.2194 10.062 69.8654 10.062C69.3183 10.062 68.8142 10.1654 68.3529 10.3721C67.8916 10.5685 67.4947 10.8424 67.1621 11.1938C66.8296 11.5452 66.5721 11.9587 66.3898 12.4341C66.2074 12.9096 66.1162 13.4212 66.1162 13.969C66.1162 14.5168 66.202 15.0336 66.3737 15.5194C66.556 15.9948 66.8081 16.4134 67.1299 16.7752C67.4625 17.1266 67.8594 17.4109 68.3207 17.6279C68.7927 17.8346 69.3237 17.938 69.9137 17.938C70.4608 17.938 70.9704 17.8243 71.4424 17.5969C71.9251 17.3695 72.3006 17.0388 72.5688 16.6047H72.6009V17.7209ZM68.2081 14.8372C68.1222 14.5478 68.0793 14.2584 68.0793 13.969C68.0793 13.6796 68.1222 13.3953 68.2081 13.1163C68.3046 12.8269 68.4441 12.5685 68.6264 12.3411C68.8088 12.1137 69.0394 11.9328 69.3183 11.7984C69.5973 11.6537 69.9244 11.5814 70.2999 11.5814C70.6539 11.5814 70.9704 11.6537 71.2493 11.7984C71.5282 11.9432 71.7642 12.1292 71.9573 12.3566C72.1611 12.584 72.3113 12.8424 72.4078 13.1318C72.5151 13.4212 72.5688 13.7106 72.5688 14C72.5688 14.2894 72.5151 14.5788 72.4078 14.8682C72.3113 15.1473 72.1611 15.4005 71.9573 15.6279C71.7642 15.8553 71.5282 16.0413 71.2493 16.186C70.9704 16.3204 70.6539 16.3876 70.2999 16.3876C69.9244 16.3876 69.5973 16.3152 69.3183 16.1705C69.0394 16.0258 68.8088 15.8398 68.6264 15.6124C68.4441 15.385 68.3046 15.1266 68.2081 14.8372ZM39.6617 9.03876C39.4472 8.77003 39.1415 8.5478 38.7445 8.37209C38.3584 8.18605 37.9668 8.09302 37.5699 8.09302C37.3339 8.09302 37.0979 8.12403 36.8619 8.18605C36.6259 8.23773 36.4113 8.32558 36.2182 8.44961C36.0251 8.56331 35.8642 8.71835 35.7355 8.91473C35.6175 9.10077 35.5585 9.32817 35.5585 9.5969C35.5585 9.84496 35.6121 10.0568 35.7194 10.2326C35.8267 10.4083 35.9715 10.5581 36.1539 10.6822C36.347 10.8062 36.5776 10.9147 36.8458 11.0078C37.114 11.1008 37.409 11.1938 37.7308 11.2868C38.0955 11.4005 38.471 11.5297 38.8572 11.6744C39.2541 11.8191 39.6135 12.0103 39.9353 12.2481C40.2678 12.4858 40.536 12.7855 40.7398 13.1473C40.9544 13.509 41.0617 13.9587 41.0617 14.4961C41.0617 15.0853 40.949 15.6021 40.7237 16.0465C40.4985 16.4806 40.1981 16.8424 39.8226 17.1318C39.4472 17.4212 39.0074 17.6382 38.5032 17.7829C37.999 17.9276 37.468 18 36.9101 18C36.17 18 35.4459 17.8708 34.7378 17.6124C34.0298 17.3437 33.4506 16.9509 33 16.4341L34.4482 15.1318C34.7271 15.5039 35.0972 15.7984 35.5585 16.0155C36.0305 16.2326 36.4918 16.3411 36.9423 16.3411C37.1783 16.3411 37.4197 16.3152 37.6664 16.2636C37.9132 16.2015 38.1331 16.1034 38.3262 15.969C38.53 15.8346 38.6909 15.6693 38.8089 15.4729C38.9376 15.2662 39.002 15.0129 39.002 14.7132C39.002 14.4238 38.9323 14.186 38.7928 14C38.6534 13.8036 38.4656 13.6382 38.2296 13.5039C37.9936 13.3592 37.7147 13.2351 37.3929 13.1318L36.3791 12.8062C36.0359 12.7028 35.6926 12.5788 35.3493 12.4341C35.006 12.2894 34.6949 12.0982 34.416 11.8605C34.1478 11.6227 33.9279 11.3333 33.7563 10.9922C33.5846 10.6408 33.4988 10.2067 33.4988 9.68992C33.4988 9.13178 33.6168 8.65116 33.8528 8.24806C34.0996 7.84496 34.416 7.51421 34.8022 7.25581C35.1991 6.98708 35.6443 6.7907 36.1378 6.66667C36.642 6.5323 37.1515 6.46512 37.6664 6.46512C38.2457 6.46512 38.8304 6.56331 39.4204 6.75969C40.0211 6.95607 40.5414 7.25065 40.9812 7.64341L39.6617 9.03876ZM41.7915 10.2791V11.7674H43.1432V15.2403C43.1432 15.6021 43.1754 15.9432 43.2397 16.2636C43.3148 16.5736 43.4436 16.8527 43.6259 17.1008C43.819 17.3385 44.0765 17.5297 44.3983 17.6744C44.7201 17.8088 45.1385 17.876 45.6534 17.876C45.868 17.876 46.0932 17.8553 46.3293 17.814C46.5653 17.7829 46.7691 17.7364 46.9407 17.6744L46.8763 16.2171C46.7583 16.2687 46.6243 16.3101 46.4741 16.3411C46.3239 16.3618 46.1844 16.3721 46.0557 16.3721C45.6266 16.3721 45.3477 16.2636 45.219 16.0465C45.101 15.8295 45.042 15.5556 45.042 15.2248V11.7674H46.9729V10.2791H45.042V8.12403H43.1432V10.2791H41.7915ZM53.1172 16.7752H53.1655V17.7209H54.9677V13.1938C54.9677 12.8217 54.914 12.4496 54.8068 12.0775C54.7102 11.7054 54.5332 11.3695 54.2758 11.0698C54.0183 10.77 53.6643 10.5271 53.2137 10.3411C52.7739 10.155 52.2107 10.062 51.5242 10.062C50.9342 10.062 50.3495 10.1602 49.7702 10.3566C49.2017 10.553 48.6975 10.8475 48.2577 11.2403L49.2553 12.3721C49.5021 12.1344 49.8131 11.9328 50.1886 11.7674C50.5641 11.6021 50.9556 11.5194 51.3633 11.5194C51.846 11.5194 52.259 11.6331 52.6023 11.8605C52.9563 12.0775 53.1333 12.4186 53.1333 12.8837V13.0698C52.5326 13.0698 51.9157 13.1008 51.2828 13.1628C50.6606 13.2145 50.0921 13.3282 49.5771 13.5039C49.0622 13.6796 48.6385 13.9328 48.3059 14.2636C47.9841 14.5943 47.8232 15.0388 47.8232 15.5969C47.8232 16.031 47.9144 16.3979 48.0968 16.6977C48.2899 16.9871 48.5259 17.2248 48.8048 17.4109C49.0944 17.5866 49.4055 17.7106 49.7381 17.7829C50.0813 17.8656 50.4085 17.907 50.7196 17.907C51.2667 17.907 51.7548 17.8036 52.1839 17.5969C52.613 17.3798 52.9241 17.1059 53.1172 16.7752ZM52.6988 14.3256H53.1333V14.5891C53.1333 15.1783 52.9616 15.6434 52.6184 15.9845C52.2751 16.3256 51.7709 16.4961 51.1058 16.4961C50.9449 16.4961 50.784 16.4806 50.6231 16.4496C50.4622 16.4186 50.3173 16.3669 50.1886 16.2946C50.0599 16.2222 49.9526 16.1292 49.8668 16.0155C49.7917 15.8915 49.7542 15.7416 49.7542 15.5659C49.7542 15.2868 49.8507 15.0698 50.0438 14.9147C50.2369 14.7494 50.4782 14.6253 50.7679 14.5426C51.0575 14.4496 51.374 14.3928 51.7173 14.3721C52.0605 14.3411 52.3877 14.3256 52.6988 14.3256ZM59.0517 10.2791H57.2173V17.7209H59.1482V13.6279C59.1482 13.3798 59.1858 13.137 59.2609 12.8992C59.336 12.6512 59.4432 12.4341 59.5827 12.2481C59.7329 12.062 59.9206 11.9121 60.1459 11.7984C60.3712 11.6744 60.6393 11.6124 60.9504 11.6124C61.2615 11.6124 61.5083 11.6744 61.6906 11.7984C61.8837 11.9225 62.0339 12.0827 62.1412 12.2791C62.2485 12.4651 62.3182 12.677 62.3504 12.9147C62.3826 13.1525 62.3986 13.3798 62.3986 13.5969V17.7209H64.3296V13.0698C64.3296 12.6873 64.2759 12.3152 64.1687 11.9535C64.0614 11.5917 63.8898 11.2713 63.6538 10.9922C63.4285 10.7132 63.1335 10.491 62.7687 10.3256C62.4147 10.1499 61.9856 10.062 61.4814 10.062C60.9022 10.062 60.398 10.2067 59.9689 10.4961C59.5505 10.7752 59.2555 11.1008 59.0839 11.4729H59.0517V10.2791ZM81.5764 16.7752H81.5281C81.335 17.1059 81.0239 17.3798 80.5948 17.5969C80.1657 17.8036 79.6776 17.907 79.1305 17.907C78.8194 17.907 78.4923 17.8656 78.149 17.7829C77.8164 17.7106 77.5053 17.5866 77.2157 17.4109C76.9368 17.2248 76.7008 16.9871 76.5077 16.6977C76.3253 16.3979 76.2341 16.031 76.2341 15.5969C76.2341 15.0388 76.3951 14.5943 76.7169 14.2636C77.0494 13.9328 77.4732 13.6796 77.9881 13.5039C78.503 13.3282 79.0715 13.2145 79.6937 13.1628C80.3266 13.1008 80.9435 13.0698 81.5442 13.0698V12.8837C81.5442 12.4186 81.3672 12.0775 81.0132 11.8605C80.6699 11.6331 80.2569 11.5194 79.7742 11.5194C79.3665 11.5194 78.975 11.6021 78.5995 11.7674C78.2241 11.9328 77.913 12.1344 77.6662 12.3721L76.6686 11.2403C77.1084 10.8475 77.6126 10.553 78.1812 10.3566C78.7605 10.1602 79.3451 10.062 79.9351 10.062C80.6217 10.062 81.1848 10.155 81.6247 10.3411C82.0752 10.5271 82.4292 10.77 82.6867 11.0698C82.9441 11.3695 83.1211 11.7054 83.2177 12.0775C83.325 12.4496 83.3786 12.8217 83.3786 13.1938V17.7209H81.5764V16.7752ZM81.5442 14.3256H81.1098C80.7987 14.3256 80.4715 14.3411 80.1282 14.3721C79.7849 14.3928 79.4685 14.4496 79.1788 14.5426C78.8892 14.6253 78.6478 14.7494 78.4547 14.9147C78.2616 15.0698 78.1651 15.2868 78.1651 15.5659C78.1651 15.7416 78.2026 15.8915 78.2777 16.0155C78.3635 16.1292 78.4708 16.2222 78.5995 16.2946C78.7283 16.3669 78.8731 16.4186 79.034 16.4496C79.1949 16.4806 79.3558 16.4961 79.5167 16.4961C80.1818 16.4961 80.686 16.3256 81.0293 15.9845C81.3726 15.6434 81.5442 15.1783 81.5442 14.5891V14.3256ZM85.6282 10.2791H87.4787V11.5194H87.5109C87.7254 11.0853 88.0258 10.7338 88.412 10.4651C88.7982 10.1964 89.2487 10.062 89.7636 10.062C89.8387 10.062 89.9192 10.0672 90.005 10.0775C90.0908 10.0775 90.1659 10.0879 90.2303 10.1085V11.814C90.1016 11.7829 89.9889 11.7623 89.8924 11.7519C89.8065 11.7416 89.7207 11.7364 89.6349 11.7364C89.1951 11.7364 88.8411 11.814 88.5729 11.969C88.3047 12.124 88.0955 12.3101 87.9453 12.5271C87.7952 12.7442 87.6932 12.9664 87.6396 13.1938C87.586 13.4212 87.5592 13.6021 87.5592 13.7364V17.7209H85.6282V10.2791ZM99.0592 17.7209H97.2248V16.6047H97.1926C96.9244 17.0388 96.549 17.3695 96.0662 17.5969C95.5942 17.8243 95.0847 17.938 94.5376 17.938C93.9476 17.938 93.4165 17.8346 92.9445 17.6279C92.4833 17.4109 92.0863 17.1266 91.7538 16.7752C91.432 16.4134 91.1799 15.9948 90.9975 15.5194C90.8259 15.0336 90.7401 14.5168 90.7401 13.969C90.7401 13.4212 90.8312 12.9096 91.0136 12.4341C91.196 11.9587 91.4534 11.5452 91.786 11.1938C92.1185 10.8424 92.5154 10.5685 92.9767 10.3721C93.438 10.1654 93.9422 10.062 94.4893 10.062C94.8433 10.062 95.1598 10.1034 95.4387 10.186C95.7176 10.2584 95.959 10.3514 96.1628 10.4651C96.3773 10.5788 96.5597 10.7028 96.7099 10.8372C96.8601 10.9716 96.9834 11.1008 97.08 11.2248H97.1282V6H99.0592V17.7209ZM92.7032 13.969C92.7032 14.2584 92.7461 14.5478 92.8319 14.8372C92.9284 15.1266 93.0679 15.385 93.2503 15.6124C93.4326 15.8398 93.6633 16.0258 93.9422 16.1705C94.2211 16.3152 94.5483 16.3876 94.9238 16.3876C95.2778 16.3876 95.5942 16.3204 95.8731 16.186C96.152 16.0413 96.388 15.8553 96.5811 15.6279C96.785 15.4005 96.9351 15.1473 97.0317 14.8682C97.139 14.5788 97.1926 14.2894 97.1926 14C97.1926 13.7106 97.139 13.4212 97.0317 13.1318C96.9351 12.8424 96.785 12.584 96.5811 12.3566C96.388 12.1292 96.152 11.9432 95.8731 11.7984C95.5942 11.6537 95.2778 11.5814 94.9238 11.5814C94.5483 11.5814 94.2211 11.6537 93.9422 11.7984C93.6633 11.9328 93.4326 12.1137 93.2503 12.3411C93.0679 12.5685 92.9284 12.8269 92.8319 13.1163C92.7461 13.3953 92.7032 13.6796 92.7032 13.969ZM105.524 6.74419H108.212L113.506 14.9612H113.538V6.74419H115.565V17.7209H112.991L107.584 9.24031H107.552V17.7209H105.524V6.74419ZM117.533 13.969C117.533 13.3798 117.64 12.8475 117.855 12.3721C118.08 11.8863 118.38 11.4729 118.756 11.1318C119.131 10.7907 119.576 10.5271 120.091 10.3411C120.606 10.155 121.153 10.062 121.733 10.062C122.312 10.062 122.859 10.155 123.374 10.3411C123.889 10.5271 124.334 10.7907 124.709 11.1318C125.085 11.4729 125.38 11.8863 125.594 12.3721C125.82 12.8475 125.932 13.3798 125.932 13.969C125.932 14.5581 125.82 15.0956 125.594 15.5814C125.38 16.0672 125.085 16.4858 124.709 16.8372C124.334 17.1783 123.889 17.447 123.374 17.6434C122.859 17.8398 122.312 17.938 121.733 17.938C121.153 17.938 120.606 17.8398 120.091 17.6434C119.576 17.447 119.131 17.1783 118.756 16.8372C118.38 16.4858 118.08 16.0672 117.855 15.5814C117.64 15.0956 117.533 14.5581 117.533 13.969ZM119.496 13.969C119.496 14.2584 119.539 14.5478 119.625 14.8372C119.721 15.1266 119.861 15.385 120.043 15.6124C120.225 15.8398 120.456 16.0258 120.735 16.1705C121.014 16.3152 121.346 16.3876 121.733 16.3876C122.119 16.3876 122.451 16.3152 122.73 16.1705C123.009 16.0258 123.24 15.8398 123.422 15.6124C123.605 15.385 123.739 15.1266 123.824 14.8372C123.921 14.5478 123.969 14.2584 123.969 13.969C123.969 13.6796 123.921 13.3953 123.824 13.1163C123.739 12.8269 123.605 12.5685 123.422 12.3411C123.24 12.1137 123.009 11.9328 122.73 11.7984C122.451 11.6537 122.119 11.5814 121.733 11.5814C121.346 11.5814 121.014 11.6537 120.735 11.7984C120.456 11.9328 120.225 12.1137 120.043 12.3411C119.861 12.5685 119.721 12.8269 119.625 13.1163C119.539 13.3953 119.496 13.6796 119.496 13.969ZM126.694 11.7674V10.2791H128.046V8.12403H129.945V10.2791H131.876V11.7674H129.945V15.2248C129.945 15.5556 130.004 15.8295 130.122 16.0465C130.25 16.2636 130.529 16.3721 130.958 16.3721C131.087 16.3721 131.227 16.3618 131.377 16.3411C131.527 16.3101 131.661 16.2687 131.779 16.2171L131.843 17.6744C131.672 17.7364 131.468 17.7829 131.232 17.814C130.996 17.8553 130.771 17.876 130.556 17.876C130.041 17.876 129.623 17.8088 129.301 17.6744C128.979 17.5297 128.722 17.3385 128.529 17.1008C128.346 16.8527 128.218 16.5736 128.143 16.2636C128.078 15.9432 128.046 15.6021 128.046 15.2403V11.7674H126.694ZM140.643 14.093V14.3411C140.643 14.4238 140.637 14.5065 140.627 14.5891H134.753C134.775 14.8579 134.845 15.1059 134.963 15.3333C135.091 15.5504 135.258 15.7416 135.461 15.907C135.665 16.062 135.896 16.186 136.153 16.2791C136.411 16.3721 136.679 16.4186 136.958 16.4186C137.441 16.4186 137.848 16.3359 138.181 16.1705C138.513 15.9948 138.787 15.7571 139.002 15.4574L140.289 16.4496C139.527 17.4419 138.422 17.938 136.974 17.938C136.373 17.938 135.821 17.8501 135.317 17.6744C134.812 17.4884 134.373 17.23 133.997 16.8992C133.632 16.5685 133.343 16.1654 133.128 15.6899C132.924 15.2041 132.823 14.6563 132.823 14.0465C132.823 13.447 132.924 12.9044 133.128 12.4186C133.343 11.9225 133.632 11.5039 133.997 11.1628C134.362 10.8114 134.791 10.5426 135.284 10.3566C135.789 10.1602 136.33 10.062 136.91 10.062C137.446 10.062 137.94 10.1499 138.39 10.3256C138.851 10.491 139.248 10.7442 139.581 11.0853C139.913 11.416 140.171 11.8346 140.353 12.3411C140.546 12.8372 140.643 13.4212 140.643 14.093ZM138.712 13.2558C138.712 13.0181 138.674 12.7907 138.599 12.5736C138.535 12.3566 138.428 12.1654 138.277 12C138.127 11.8346 137.934 11.7054 137.698 11.6124C137.473 11.509 137.205 11.4574 136.894 11.4574C136.314 11.4574 135.821 11.6279 135.413 11.969C135.016 12.2997 134.796 12.7287 134.753 13.2558H138.712ZM146.745 12.2636C146.573 12.0465 146.337 11.8605 146.037 11.7054C145.737 11.5401 145.409 11.4574 145.055 11.4574C144.744 11.4574 144.46 11.5194 144.202 11.6434C143.945 11.7674 143.816 11.9742 143.816 12.2636C143.816 12.553 143.956 12.7597 144.235 12.8837C144.524 12.9974 144.943 13.1163 145.49 13.2403C145.779 13.3023 146.069 13.385 146.359 13.4884C146.659 13.5917 146.927 13.7313 147.163 13.907C147.41 14.0724 147.608 14.2842 147.759 14.5426C147.909 14.7907 147.984 15.0956 147.984 15.4574C147.984 15.9121 147.893 16.2997 147.71 16.6202C147.539 16.9302 147.303 17.1835 147.002 17.3798C146.713 17.5762 146.369 17.7158 145.973 17.7985C145.586 17.8915 145.184 17.938 144.766 17.938C144.165 17.938 143.58 17.8346 143.012 17.6279C142.443 17.4109 141.971 17.1059 141.596 16.7132L142.867 15.5659C143.081 15.8346 143.36 16.0568 143.704 16.2326C144.047 16.4083 144.428 16.4961 144.846 16.4961C144.986 16.4961 145.125 16.4806 145.264 16.4496C145.415 16.4186 145.549 16.3721 145.667 16.3101C145.796 16.2377 145.897 16.1447 145.973 16.031C146.048 15.9173 146.085 15.7778 146.085 15.6124C146.085 15.3023 145.935 15.0801 145.635 14.9457C145.345 14.8114 144.905 14.677 144.315 14.5426C144.025 14.4806 143.741 14.4031 143.462 14.3101C143.194 14.2067 142.953 14.0775 142.738 13.9225C142.524 13.7571 142.352 13.5556 142.223 13.3178C142.095 13.0801 142.03 12.7855 142.03 12.4341C142.03 12.0207 142.116 11.6641 142.288 11.3643C142.47 11.0646 142.706 10.8217 142.996 10.6357C143.285 10.4393 143.612 10.2946 143.977 10.2015C144.342 10.1085 144.717 10.062 145.104 10.062C145.661 10.062 146.203 10.155 146.729 10.3411C147.265 10.5271 147.689 10.8114 148 11.1938L146.745 12.2636Z" fill="#086DD6"/>
  </svg>
  