<svg width="120" height="120" viewBox="0 0 120 120" fill="none" xmlns="http://www.w3.org/2000/svg">
  <circle cx="60" cy="60" r="60" fill="#F4F5F7" />
  <g filter="url(#filter0_d_5_1809)">
    <rect x="31" y="31" width="58" height="58" rx="4" fill="white" />
    <path
      d="M49.9997 66H53.9997C53.9997 68.16 56.7397 70 59.9997 70C63.2596 70 65.9996 68.16 65.9996 66C65.9996 63.8 63.9197 63 59.5197 61.94C55.2797 60.88 49.9997 59.56 49.9997 54C49.9997 50.42 52.9397 47.38 56.9997 46.36V42H62.9996V46.36C67.0596 47.38 69.9996 50.42 69.9996 54H65.9996C65.9996 51.84 63.2596 50 59.9997 50C56.7397 50 53.9997 51.84 53.9997 54C53.9997 56.2 56.0796 57 60.4796 58.06C64.7196 59.12 69.9996 60.44 69.9996 66C69.9996 69.58 67.0596 72.62 62.9996 73.64V78H56.9997V73.64C52.9397 72.62 49.9997 69.58 49.9997 66Z"
      fill="#BBBEC4" />
  </g>
  <defs>
    <filter id="filter0_d_5_1809" x="19" y="23" width="82" height="82" filterUnits="userSpaceOnUse"
      color-interpolation-filters="sRGB">
      <feFlood flood-opacity="0" result="BackgroundImageFix" />
      <feColorMatrix in="SourceAlpha" type="matrix" values="0 0 0 0 0 0 0 0 0 0 0 0 0 0 0 0 0 0 127 0"
        result="hardAlpha" />
      <feOffset dy="4" />
      <feGaussianBlur stdDeviation="6" />
      <feColorMatrix type="matrix" values="0 0 0 0 0 0 0 0 0 0 0 0 0 0 0 0 0 0 0.16 0" />
      <feBlend mode="normal" in2="BackgroundImageFix" result="effect1_dropShadow_5_1809" />
      <feBlend mode="normal" in="SourceGraphic" in2="effect1_dropShadow_5_1809" result="shape" />
    </filter>
  </defs>
</svg>