<svg viewBox="0 0 20 20" fill="none" xmlns="http://www.w3.org/2000/svg">
<path d="M15.4444 12.3333H12.3333C12.3333 12.9522 12.0875 13.5457 11.6499 13.9832C11.2123 14.4208 10.6188 14.6667 10 14.6667C9.38116 14.6667 8.78767 14.4208 8.35008 13.9832C7.9125 13.5457 7.66667 12.9522 7.66667 12.3333H4.55556V4.55556H15.4444V12.3333ZM15.4444 3H4.55556C3.69222 3 3 3.7 3 4.55556V15.4444C3 15.857 3.16389 16.2527 3.45561 16.5444C3.74733 16.8361 4.143 17 4.55556 17H15.4444C15.857 17 16.2527 16.8361 16.5444 16.5444C16.8361 16.2527 17 15.857 17 15.4444V4.55556C17 4.143 16.8361 3.74733 16.5444 3.45561C16.2527 3.16389 15.857 3 15.4444 3Z" />
<path d="M13.1111 8.44442H11.5556V6.11108H8.44447V8.44442H6.88892L10 11.5555L13.1111 8.44442Z" />
</svg>
