<svg viewBox="0 0 32 32" fill="none" xmlns="http://www.w3.org/2000/svg">
<circle cx="16" cy="16" r="16" fill="#DFE1E4"/>
<path d="M16 5C17.7239 5 19.3772 5.68482 20.5962 6.90381C21.8152 8.12279 22.5 9.77609 22.5 11.5C22.5 13.2239 21.8152 14.8772 20.5962 16.0962C19.3772 17.3152 17.7239 18 16 18C14.2761 18 12.6228 17.3152 11.4038 16.0962C10.1848 14.8772 9.5 13.2239 9.5 11.5C9.5 9.77609 10.1848 8.12279 11.4038 6.90381C12.6228 5.68482 14.2761 5 16 5ZM16 19.625C20.3387 19.625 29 21.7863 29 26.125V32H3V26.125C3 21.7863 11.6613 19.625 16 19.625Z"/>
</svg>
