<svg viewBox="0 0 20 20" fill="none" xmlns="http://www.w3.org/2000/svg">
<path d="M18.3333 2.5H1.66667C0.758333 2.53333 0.0333333 3.25833 0 4.16667V15.8333C0.0333333 16.7417 0.758333 17.4667 1.66667 17.5H18.3333C19.2417 17.4667 19.9667 16.7417 20 15.8333V4.16667C19.9667 3.25833 19.2417 2.53333 18.3333 2.5ZM18.3333 15.8333H1.66667V4.16667H18.3333V15.8333ZM11.6667 14.1667V13.125C11.6667 11.7417 8.88333 11.0417 7.5 11.0417C6.11667 11.0417 3.33333 11.7417 3.33333 13.125V14.1667H11.6667ZM7.5 5.83333C6.94747 5.83333 6.41756 6.05283 6.02686 6.44353C5.63616 6.83423 5.41667 7.36413 5.41667 7.91667C5.41667 8.19025 5.47055 8.46116 5.57525 8.71392C5.67995 8.96669 5.83341 9.19635 6.02686 9.38981C6.41756 9.78051 6.94747 10 7.5 10C7.77359 10 8.0445 9.94611 8.29726 9.84142C8.55002 9.73672 8.77968 9.58326 8.97314 9.38981C9.16659 9.19635 9.32005 8.96669 9.42475 8.71392C9.52945 8.46116 9.58333 8.19025 9.58333 7.91667C9.58333 7.64308 9.52945 7.37217 9.42475 7.11941C9.32005 6.86665 9.16659 6.63698 8.97314 6.44353C8.77968 6.25007 8.55002 6.09661 8.29726 5.99192C8.0445 5.88722 7.77359 5.83333 7.5 5.83333ZM11.6667 5.83333V6.66667H16.6667V5.83333H11.6667ZM11.6667 7.5V8.33333H16.6667V7.5H11.6667ZM11.6667 9.16667V10H15V9.16667H11.6667Z"/>
</svg>
