<svg viewBox="0 0 20 20" fill="none" xmlns="http://www.w3.org/2000/svg">
  <path
    d="M9.16667 14.1667C9.16667 14.3877 9.25446 14.5996 9.41074 14.7559C9.56702 14.9122 9.77899 15 10 15C10.221 15 10.433 14.9122 10.5893 14.7559C10.7455 14.5996 10.8333 14.3877 10.8333 14.1667C10.8333 13.9457 10.7455 13.7337 10.5893 13.5774C10.433 13.4211 10.221 13.3333 10 13.3333C9.77899 13.3333 9.56702 13.4211 9.41074 13.5774C9.25446 13.7337 9.16667 13.9457 9.16667 14.1667ZM9.16667 2.5V5.83333H10.8333V4.23333C13.6583 4.64167 15.8333 7.05833 15.8333 10C15.8333 11.5471 15.2188 13.0308 14.1248 14.1248C13.0308 15.2188 11.5471 15.8333 10 15.8333C8.4529 15.8333 6.96917 15.2188 5.87521 14.1248C4.78125 13.0308 4.16667 11.5471 4.16667 10C4.16667 8.6 4.65833 7.31667 5.48333 6.31667L10 10.8333L11.175 9.65833L5.50833 3.99167V4.00833C3.68333 5.375 2.5 7.54167 2.5 10C2.5 11.9891 3.29018 13.8968 4.6967 15.3033C6.10322 16.7098 8.01088 17.5 10 17.5C11.9891 17.5 13.8968 16.7098 15.3033 15.3033C16.7098 13.8968 17.5 11.9891 17.5 10C17.5 8.01088 16.7098 6.10322 15.3033 4.6967C13.8968 3.29018 11.9891 2.5 10 2.5H9.16667ZM15 10C15 9.77899 14.9122 9.56702 14.7559 9.41074C14.5996 9.25446 14.3877 9.16667 14.1667 9.16667C13.9457 9.16667 13.7337 9.25446 13.5774 9.41074C13.4211 9.56702 13.3333 9.77899 13.3333 10C13.3333 10.221 13.4211 10.433 13.5774 10.5893C13.7337 10.7455 13.9457 10.8333 14.1667 10.8333C14.3877 10.8333 14.5996 10.7455 14.7559 10.5893C14.9122 10.433 15 10.221 15 10ZM5 10C5 10.221 5.0878 10.433 5.24408 10.5893C5.40036 10.7455 5.61232 10.8333 5.83333 10.8333C6.05435 10.8333 6.26631 10.7455 6.42259 10.5893C6.57887 10.433 6.66667 10.221 6.66667 10C6.66667 9.77899 6.57887 9.56702 6.42259 9.41074C6.26631 9.25446 6.05435 9.16667 5.83333 9.16667C5.61232 9.16667 5.40036 9.25446 5.24408 9.41074C5.0878 9.56702 5 9.77899 5 10Z" />
</svg>