<svg viewBox="0 0 20 20" fill="none" xmlns="http://www.w3.org/2000/svg">
<path d="M15.4168 13.3334L5.8335 13.3334C4.94944 13.3334 4.1016 12.9822 3.47648 12.3571C2.85136 11.732 2.50017 10.8841 2.50017 10.0001C2.50017 9.11603 2.85136 8.26818 3.47648 7.64306C4.1016 7.01794 4.94944 6.66675 5.8335 6.66675L16.2502 6.66675C16.8027 6.66675 17.3326 6.88624 17.7233 7.27694C18.114 7.66764 18.3335 8.19755 18.3335 8.75008C18.3335 9.30262 18.114 9.83252 17.7233 10.2232C17.3326 10.6139 16.8027 10.8334 16.2502 10.8334L7.50016 10.8334C7.27915 10.8334 7.06719 10.7456 6.91091 10.5893C6.75463 10.4331 6.66683 10.2211 6.66683 10.0001C6.66683 9.77907 6.75463 9.56711 6.91091 9.41082C7.06719 9.25454 7.27915 9.16675 7.50016 9.16675L15.4168 9.16675L15.4168 7.91675L7.50016 7.91675C6.94763 7.91675 6.41773 8.13624 6.02703 8.52694C5.63632 8.91764 5.41683 9.44755 5.41683 10.0001C5.41683 10.5526 5.63632 11.0825 6.02703 11.4732C6.41773 11.8639 6.94763 12.0834 7.50016 12.0834L16.2502 12.0834C17.1342 12.0834 17.9821 11.7322 18.6072 11.1071C19.2323 10.482 19.5835 9.63414 19.5835 8.75008C19.5835 7.86603 19.2323 7.01818 18.6072 6.39306C17.9821 5.76794 17.1342 5.41675 16.2502 5.41675L5.8335 5.41675C4.61792 5.41675 3.45213 5.89963 2.59259 6.75917C1.73305 7.61872 1.25017 8.7845 1.25017 10.0001C1.25017 11.2157 1.73305 12.3814 2.59259 13.241C3.45213 14.1005 4.61792 14.5834 5.8335 14.5834L15.4168 14.5834L15.4168 13.3334Z"/>
</svg>
