<svg viewBox="0 0 20 20" fill="none" xmlns="http://www.w3.org/2000/svg">
<path d="M10.0001 16.0001C7.91675 16.0001 6.07508 14.9334 5.00008 13.3334C5.02508 11.6667 8.33342 10.7501 10.0001 10.7501C11.6667 10.7501 14.9751 11.6667 15.0001 13.3334C13.9251 14.9334 12.0834 16.0001 10.0001 16.0001ZM10.0001 4.16675C10.6631 4.16675 11.299 4.43014 11.7679 4.89898C12.2367 5.36782 12.5001 6.00371 12.5001 6.66675C12.5001 7.32979 12.2367 7.96568 11.7679 8.43452C11.299 8.90336 10.6631 9.16675 10.0001 9.16675C9.33704 9.16675 8.70116 8.90336 8.23232 8.43452C7.76347 7.96568 7.50008 7.32979 7.50008 6.66675C7.50008 6.00371 7.76347 5.36782 8.23232 4.89898C8.70116 4.43014 9.33704 4.16675 10.0001 4.16675ZM10.0001 1.66675C8.90573 1.66675 7.8221 1.8823 6.81105 2.30109C5.80001 2.71987 4.88135 3.3337 4.10753 4.10753C2.54472 5.67033 1.66675 7.78995 1.66675 10.0001C1.66675 12.2102 2.54472 14.3298 4.10753 15.8926C4.88135 16.6665 5.80001 17.2803 6.81105 17.6991C7.8221 18.1179 8.90573 18.3334 10.0001 18.3334C12.2102 18.3334 14.3298 17.4554 15.8926 15.8926C17.4554 14.3298 18.3334 12.2102 18.3334 10.0001C18.3334 5.39175 14.5834 1.66675 10.0001 1.66675Z"/>
</svg>
