<svg width="9px" height="14px" viewBox="0 0 9 14" version="1.1" xmlns="http://www.w3.org/2000/svg" xmlns:xlink="http://www.w3.org/1999/xlink">
    <g id="Page-1" stroke="none" stroke-width="1" fill="none" fill-rule="evenodd">
        <g id="Group-2" fill="currentColor" fill-rule="nonzero">
            <path d="M1.6666,3.33333 C1.2246,3.33333 0.8007,3.15774 0.4881,2.84518 C0.1755,2.53262 0,2.1087 0,1.66667 C0,1.22464 0.1755,0.80072 0.4881,0.48816 C0.8007,0.1756 1.2246,0 1.6666,0 C2.1086,0 2.5326,0.1756 2.8451,0.48816 C3.1577,0.80072 3.3333,1.22464 3.3333,1.66667 C3.3333,2.1087 3.1577,2.53262 2.8451,2.84518 C2.5326,3.15774 2.1086,3.33333 1.6666,3.33333 Z M1.6666,8.33333 C1.2246,8.33333 0.8007,8.15773 0.4881,7.84513 C0.1755,7.53263 0,7.10873 0,6.66663 C0,6.22463 0.1755,5.80073 0.4881,5.48813 C0.8007,5.17563 1.2246,5.00003 1.6666,5.00003 C2.1086,5.00003 2.5326,5.17563 2.8451,5.48813 C3.1577,5.80073 3.3333,6.22463 3.3333,6.66663 C3.3333,7.10873 3.1577,7.53263 2.8451,7.84513 C2.5326,8.15773 2.1086,8.33333 1.6666,8.33333 Z M1.6666,13.33333 C1.2246,13.33333 0.8007,13.15773 0.4881,12.84513 C0.1755,12.53263 0,12.10873 0,11.66663 C0,11.22463 0.1755,10.80073 0.4881,10.48813 C0.8007,10.17563 1.2246,10.00003 1.6666,10.00003 C2.1086,10.00003 2.5326,10.17563 2.8451,10.48813 C3.1577,10.80073 3.3333,11.22463 3.3333,11.66663 C3.3333,12.10873 3.1577,12.53263 2.8451,12.84513 C2.5326,13.15773 2.1086,13.33333 1.6666,13.33333 L1.6666,13.33333 Z M6.6666,3.33333 C6.2246,3.33333 5.8007,3.15774 5.4881,2.84518 C5.1755,2.53262 5,2.1087 5,1.66667 C5,1.22464 5.1755,0.80072 5.4881,0.48816 C5.8007,0.1756 6.2246,0 6.6666,0 C7.1086,0 7.5326,0.1756 7.8451,0.48816 C8.1577,0.80072 8.3333,1.22464 8.3333,1.66667 C8.3333,2.1087 8.1577,2.53262 7.8451,2.84518 C7.5326,3.15774 7.1086,3.33333 6.6666,3.33333 Z M6.6666,8.33333 C6.2246,8.33333 5.8007,8.15773 5.4881,7.84513 C5.1755,7.53263 5,7.10873 5,6.66663 C5,6.22463 5.1755,5.80073 5.4881,5.48813 C5.8007,5.17563 6.2246,5.00003 6.6666,5.00003 C7.1086,5.00003 7.5326,5.17563 7.8451,5.48813 C8.1577,5.80073 8.3333,6.22463 8.3333,6.66663 C8.3333,7.10873 8.1577,7.53263 7.8451,7.84513 C7.5326,8.15773 7.1086,8.33333 6.6666,8.33333 Z M6.6666,13.33333 C6.2246,13.33333 5.8007,13.15773 5.4881,12.84513 C5.1755,12.53263 5,12.10873 5,11.66663 C5,11.22463 5.1755,10.80073 5.4881,10.48813 C5.8007,10.17563 6.2246,10.00003 6.6666,10.00003 C7.1086,10.00003 7.5326,10.17563 7.8451,10.48813 C8.1577,10.80073 8.3333,11.22463 8.3333,11.66663 C8.3333,12.10873 8.1577,12.53263 7.8451,12.84513 C7.5326,13.15773 7.1086,13.33333 6.6666,13.33333 L6.6666,13.33333 Z" id="Shape"></path>
        </g>
    </g>
</svg>