<svg viewBox="0 0 20 20" fill="currentColor" xmlns="http://www.w3.org/2000/svg">
<path d="M10.024 15.2014C10.5289 15.2014 10.954 15.1431 11.2991 15.0264C11.6507 14.9032 11.9351 14.738 12.1524 14.5306C12.3762 14.3231 12.536 14.0801 12.6318 13.8014C12.7341 13.5162 12.7852 13.2116 12.7852 12.8875C12.7852 12.2264 12.5615 11.7079 12.1141 11.3319C11.6731 10.9495 10.9732 10.7583 10.0144 10.7583H7.24353V15.2014H10.024ZM7.24353 4.77917V9.15417H9.48706C10.4458 9.15417 11.1617 8.9662 11.6347 8.59028C12.1077 8.21435 12.3442 7.67315 12.3442 6.96667C12.3442 6.19537 12.1205 5.63796 11.6731 5.29444C11.232 4.95093 10.5385 4.77917 9.59252 4.77917H7.24353ZM9.59252 3C10.4746 3 11.2288 3.0875 11.8552 3.2625C12.4816 3.43102 12.9962 3.67407 13.3988 3.99167C13.8015 4.30926 14.0956 4.69815 14.2809 5.15833C14.4727 5.61204 14.5686 6.12407 14.5686 6.69444C14.5686 7.025 14.5174 7.34583 14.4151 7.65694C14.3193 7.96157 14.1659 8.25 13.9549 8.52222C13.7504 8.78796 13.4915 9.02778 13.1783 9.24167C12.8651 9.45556 12.4944 9.6338 12.0662 9.77639C14.0221 10.1977 15 11.2509 15 12.9361C15 13.5324 14.8881 14.0801 14.6644 14.5792C14.4471 15.0718 14.1275 15.4995 13.7057 15.8625C13.2902 16.219 12.7756 16.4977 12.162 16.6986C11.5484 16.8995 10.8485 17 10.0623 17H5V3H9.59252Z"/>
</svg>
