<svg viewBox="0 0 20 20" fill="none" xmlns="http://www.w3.org/2000/svg">
<path d="M15.8332 11.5833C15.8332 11.5833 14.1666 13.3917 14.1666 14.5C14.1666 14.942 14.3421 15.3659 14.6547 15.6785C14.9673 15.9911 15.3912 16.1667 15.8332 16.1667C16.2752 16.1667 16.6992 15.9911 17.0117 15.6785C17.3243 15.3659 17.4999 14.942 17.4999 14.5C17.4999 13.3917 15.8332 11.5833 15.8332 11.5833ZM4.34155 10.3333L8.33322 6.34167L12.3249 10.3333H4.34155ZM13.7999 9.45L6.34989 2L5.17489 3.175L7.15822 5.15833L2.86655 9.45C2.37489 9.91667 2.37489 10.725 2.86655 11.2167L7.44989 15.8C7.69155 16.0417 8.01655 16.1667 8.33322 16.1667C8.64989 16.1667 8.97489 16.0417 9.21655 15.8L13.7999 11.2167C14.2916 10.725 14.2916 9.91667 13.7999 9.45Z"/>
</svg>
