<svg viewBox="0 0 20 20" fill="none" xmlns="http://www.w3.org/2000/svg">
<path d="M15.2459 5.92925C15.5704 5.60478 15.5704 5.07872 15.2459 4.75425C14.9214 4.42978 14.3954 4.42978 14.0709 4.75425L10.0001 8.82508L5.92925 4.75425C5.60478 4.42978 5.07872 4.42978 4.75425 4.75425C4.42978 5.07872 4.42978 5.60478 4.75425 5.92925L8.82508 10.0001L4.75425 14.0709C4.42978 14.3954 4.42978 14.9214 4.75425 15.2459C5.07872 15.5704 5.60478 15.5704 5.92925 15.2459L10.0001 11.1751L14.0709 15.2459C14.3954 15.5704 14.9214 15.5704 15.2459 15.2459C15.5704 14.9214 15.5704 14.3954 15.2459 14.0709L11.1751 10.0001L15.2459 5.92925Z" />
</svg>
