<svg viewBox="0 0 20 20" fill="none" xmlns="http://www.w3.org/2000/svg">
  <path d="M10 1.66666C5.41669 1.66666 1.66669 5.41666 1.66669 9.99999C1.66669 14.5833 5.41669 18.3333 10 18.3333C14.5834 18.3333 18.3334 14.5833 18.3334 9.99999C18.3334 5.41666 14.5834 1.66666 10 1.66666ZM10 16.6667C6.32502 16.6667 3.33335 13.675 3.33335 9.99999C3.33335 6.32499 6.32502 3.33332 10 3.33332C13.675 3.33332 16.6667 6.32499 16.6667 9.99999C16.6667 13.675 13.675 16.6667 10 16.6667ZM13.825 6.31666L8.33335 11.8083L6.17502 9.65832L5.00002 10.8333L8.33335 14.1667L15 7.49999L13.825 6.31666Z" />
</svg>
  