<svg viewBox="0 0 20 20" fill="none" xmlns="http://www.w3.org/2000/svg">
  <path d="M6.44167 8.33334L13.1083 15H5C4.11594 15 3.2681 14.6488 2.64298 14.0237C2.01786 13.3986 1.66667 12.5507 1.66667 11.6667C1.66667 10.7826 2.01786 9.93478 2.64298 9.30965C3.2681 8.68453 4.11594 8.33334 5 8.33334H6.44167ZM2.5 4.39168L4.79167 6.66668C2.13333 6.79168 0 8.97501 0 11.6667C0 12.9928 0.526784 14.2645 1.46447 15.2022C2.40215 16.1399 3.67392 16.6667 5 16.6667H14.775L16.4417 18.3333L17.5 17.275L3.55833 3.33334L2.5 4.39168ZM16.125 8.35834C15.5583 5.49168 13.0333 3.33334 10 3.33334C8.75 3.33334 7.625 3.69168 6.66667 4.30834L7.875 5.52501C8.50833 5.19168 9.23333 5.00001 10 5.00001C11.2156 5.00001 12.3814 5.4829 13.2409 6.34244C14.1004 7.20198 14.5833 8.36777 14.5833 9.58334V10H15.8333C16.4964 10 17.1323 10.2634 17.6011 10.7322C18.0699 11.2011 18.3333 11.837 18.3333 12.5C18.3333 13.4417 17.8 14.2583 17.0333 14.6833L18.2417 15.8917C19.3 15.1333 20 13.9 20 12.5C20 10.3 18.2917 8.51668 16.125 8.35834Z" />
</svg>
  