<svg viewBox="0 0 20 20" fill="none" xmlns="http://www.w3.org/2000/svg">
<path d="M16.6667 3.33341H14.0251L12.5001 1.66675H7.50008L5.97508 3.33341H3.33341C2.89139 3.33341 2.46746 3.50901 2.1549 3.82157C1.84234 4.13413 1.66675 4.55805 1.66675 5.00008V15.0001C1.66675 15.4421 1.84234 15.866 2.1549 16.1786C2.46746 16.4912 2.89139 16.6667 3.33341 16.6667H16.6667C17.1088 16.6667 17.5327 16.4912 17.8453 16.1786C18.1578 15.866 18.3334 15.4421 18.3334 15.0001V5.00008C18.3334 4.55805 18.1578 4.13413 17.8453 3.82157C17.5327 3.50901 17.1088 3.33341 16.6667 3.33341ZM16.6667 15.0001H3.33341V5.00008H6.70842L8.23342 3.33341H11.7667L13.2917 5.00008H16.6667V15.0001ZM10.0001 5.83341C8.89501 5.83341 7.83521 6.2724 7.0538 7.0538C6.2724 7.8352 5.83342 8.89501 5.83342 10.0001C5.83342 11.1051 6.2724 12.165 7.0538 12.9464C7.83521 13.7278 8.89501 14.1667 10.0001 14.1667C11.1052 14.1667 12.165 13.7278 12.9464 12.9464C13.7278 12.165 14.1667 11.1051 14.1667 10.0001C14.1667 8.89501 13.7278 7.8352 12.9464 7.0538C12.165 6.2724 11.1052 5.83341 10.0001 5.83341ZM10.0001 12.5001C9.33704 12.5001 8.70116 12.2367 8.23231 11.7678C7.76347 11.299 7.50008 10.6631 7.50008 10.0001C7.50008 9.33704 7.76347 8.70115 8.23231 8.23231C8.70116 7.76347 9.33704 7.50008 10.0001 7.50008C10.6631 7.50008 11.299 7.76347 11.7678 8.23231C12.2367 8.70115 12.5001 9.33704 12.5001 10.0001C12.5001 10.6631 12.2367 11.299 11.7678 11.7678C11.299 12.2367 10.6631 12.5001 10.0001 12.5001Z"/>
</svg>
