<svg viewBox="0 0 20 20" fill="none" xmlns="http://www.w3.org/2000/svg">
  <path
    d="M12.9461 12.9461C12.6207 13.2716 12.093 13.2716 11.7676 12.9461L9.99984 11.1784L8.23207 12.9461C7.90664 13.2716 7.379 13.2716 7.05356 12.9461C6.72812 12.6207 6.72812 12.093 7.05356 11.7676L8.82133 9.99984L7.05356 8.23207C6.72812 7.90664 6.72812 7.379 7.05356 7.05356C7.379 6.72812 7.90664 6.72812 8.23207 7.05356L9.99984 8.82133L11.7676 7.05356C12.093 6.72812 12.6207 6.72812 12.9461 7.05356C13.2716 7.379 13.2716 7.90664 12.9461 8.23207L11.1784 9.99984L12.9461 11.7676C13.2716 12.093 13.2716 12.6207 12.9461 12.9461ZM15.8924 4.10728C15.1186 3.33346 14.1999 2.71963 13.1889 2.30084C12.1778 1.88205 11.0942 1.6665 9.99984 1.6665C7.7897 1.6665 5.67009 2.54448 4.10728 4.10728C2.54448 5.67008 1.6665 7.7897 1.6665 9.99984C1.6665 11.0942 1.88205 12.1778 2.30084 13.1889C2.71963 14.1999 3.33346 15.1186 4.10728 15.8924C5.67009 17.4552 7.7897 18.3332 9.99984 18.3332C12.21 18.3332 14.3296 17.4552 15.8924 15.8924C16.6662 15.1186 17.2801 14.1999 17.6988 13.1889C18.1176 12.1778 18.3332 11.0942 18.3332 9.99984C18.3332 8.90549 18.1176 7.82186 17.6988 6.81081C17.2801 5.79976 16.6662 4.8811 15.8924 4.10728Z"
    fill="currentColor" />
</svg>