<svg xmlns="http://www.w3.org/2000/svg" viewBox="0 0 16 16">
	<path fill="currentColor" fill-rule="evenodd" d="M0 4.13v1.428a.5.5 0 0 0 .725.446l.886-.446l.377-.19L2 5.362l1.404-.708l.07-.036l.662-.333l.603-.304a.5.5 0 0 0 0-.893l-.603-.305l-.662-.333l-.07-.036L2 1.706l-.012-.005l-.377-.19l-.886-.447A.5.5 0 0 0 0 1.51v2.62ZM7.25 2a.75.75 0 0 0 0 1.5h7a.25.25 0 0 1 .25.25v8.5a.25.25 0 0 1-.25.25h-9.5a.25.25 0 0 1-.25-.25V6.754a.75.75 0 0 0-1.5 0v5.496c0 .966.784 1.75 1.75 1.75h9.5A1.75 1.75 0 0 0 16 12.25v-8.5A1.75 1.75 0 0 0 14.25 2h-7Zm-.5 4a.75.75 0 0 0 0 1.5h5.5a.75.75 0 0 0 0-1.5h-5.5ZM6 9.25a.75.75 0 0 1 .75-.75h3.5a.75.75 0 0 1 0 1.5h-3.5A.75.75 0 0 1 6 9.25Z" clip-rule="evenodd" />
</svg>
