<svg viewBox="0 0 20 20" fill="none" xmlns="http://www.w3.org/2000/svg">
<path d="M8.1251 17.3751C9.60844 16.7918 9.28344 15.1834 8.53344 14.1668C7.79177 13.1251 6.76677 12.4084 5.73344 11.7168C5.00011 11.2501 4.3251 10.6668 3.78344 10.0001C3.5501 9.72511 3.07511 9.21678 3.55844 9.11678C4.0501 9.01678 4.9001 9.50011 5.33344 9.68345C6.09177 10.0001 6.84177 10.3668 7.54177 10.8001L8.38344 9.38345C7.08344 8.52511 5.41677 7.76678 3.86677 7.54178C2.98344 7.40845 2.0501 7.59178 1.7501 8.55011C1.48344 9.37511 1.90844 10.2084 2.39177 10.8584C3.53344 12.3834 5.30844 13.1168 6.63344 14.4334C6.91677 14.7084 7.25844 15.0334 7.4251 15.4168C7.6001 15.7834 7.55844 15.8084 7.16677 15.8084C6.13344 15.8084 4.84177 15.0001 4.00011 14.4668L3.15844 15.8834C4.43344 16.6668 6.56677 17.8918 8.1251 17.3751ZM17.3668 4.37511C17.5501 4.19178 17.5501 3.89178 17.3668 3.71678L16.2834 2.63345C16.1084 2.45845 15.8084 2.45845 15.6334 2.63345L14.7834 3.48345L16.5168 5.21678L17.3668 4.37511ZM9.16677 9.10011V10.8334H10.9001L16.0251 5.70845L14.2918 3.97511L9.16677 9.10011Z"/>
</svg>
