<svg viewBox="0 0 20 20" fill="none" xmlns="http://www.w3.org/2000/svg">
<path d="M9.85825 7.5L12.4999 10.1333C12.4999 10.0917 12.4999 10.0417 12.4999 10C12.4999 9.33696 12.2365 8.70108 11.7677 8.23223C11.2988 7.76339 10.663 7.5 9.99992 7.5C9.94992 7.5 9.90825 7.5 9.85825 7.5ZM6.27492 8.16667L7.56659 9.45833C7.52492 9.63334 7.49992 9.80833 7.49992 10C7.49992 10.663 7.76331 11.2989 8.23215 11.7678C8.70099 12.2366 9.33688 12.5 9.99992 12.5C10.1833 12.5 10.3666 12.475 10.5416 12.4333L11.8333 13.725C11.2749 14 10.6583 14.1667 9.99992 14.1667C8.89485 14.1667 7.83504 13.7277 7.05364 12.9463C6.27224 12.1649 5.83325 11.1051 5.83325 10C5.83325 9.34167 5.99992 8.725 6.27492 8.16667ZM1.66659 3.55833L3.56659 5.45833L3.94159 5.83333C2.56659 6.91667 1.48325 8.33333 0.833252 10C2.27492 13.6583 5.83325 16.25 9.99992 16.25C11.2916 16.25 12.5249 16 13.6499 15.55L14.0083 15.9L16.4416 18.3333L17.4999 17.275L2.72492 2.5L1.66659 3.55833ZM9.99992 5.83333C11.105 5.83333 12.1648 6.27232 12.9462 7.05372C13.7276 7.83512 14.1666 8.89493 14.1666 10C14.1666 10.5333 14.0583 11.05 13.8666 11.5167L16.3083 13.9583C17.5583 12.9167 18.5583 11.55 19.1666 10C17.7249 6.34167 14.1666 3.75 9.99992 3.75C8.83325 3.75 7.71659 3.95833 6.66659 4.33333L8.47492 6.125C8.94992 5.94167 9.45825 5.83333 9.99992 5.83333Z"/>
</svg>
