<svg viewBox="0 0 20 20" fill="none" xmlns="http://www.w3.org/2000/svg">
<path d="M2.5 6.01786V4.41071H4.16667V3.60714C4.16667 2.71518 4.91667 2 5.83333 2H10.8333V7.625L12.9167 6.41964L15 7.625V2H15.8333C16.7083 2 17.5 2.76339 17.5 3.60714V16.4643C17.5 17.308 16.7083 18.0714 15.8333 18.0714H5.83333C4.95833 18.0714 4.16667 17.308 4.16667 16.4643V15.6607H2.5V14.0536H4.16667V10.8393H2.5V9.23214H4.16667V6.01786H2.5ZM5.83333 9.23214H4.16667V10.8393H5.83333V9.23214ZM5.83333 6.01786V4.41071H4.16667V6.01786H5.83333ZM5.83333 15.6607V14.0536H4.16667V15.6607H5.83333Z"/>
</svg>
