<svg viewBox="0 0 20 20" fill="none" xmlns="http://www.w3.org/2000/svg">
  <path d="M14.1667 3.60714V8.42857L12.5 6.82143L10.8333 8.42857V3.60714H7.5V16.4643H15.8333V3.60714H14.1667ZM2.5 6.01786V4.41071H4.16667V3.60714C4.16667 2.71518 4.91667 2 5.83333 2H15.8333C16.7083 2 17.5 2.76339 17.5 3.60714V16.4643C17.5 17.308 16.7083 18.0714 15.8333 18.0714H5.83333C4.95833 18.0714 4.16667 17.308 4.16667 16.4643V15.6607H2.5V14.0536H4.16667V10.8393H2.5V9.23214H4.16667V6.01786H2.5ZM4.16667 4.41071V6.01786H5.83333V4.41071H4.16667ZM4.16667 15.6607H5.83333V14.0536H4.16667V15.6607ZM4.16667 10.8393H5.83333V9.23214H4.16667V10.8393Z" />
</svg>