<svg viewBox="0 0 20 20" fill="none" xmlns="http://www.w3.org/2000/svg">
<path d="M16.9325 7.09058L17.1675 6.94371V6.66659V4.99992V4.09779L16.4025 4.57592L10.0008 8.57696L3.59915 4.57592L2.83415 4.09779V4.99992V6.66659V6.94371L3.06915 7.09058L9.73581 11.2573L10.0008 11.4229L10.2658 11.2573L16.9325 7.09058ZM3.33415 3.83325H16.6675C17.3096 3.83325 17.8341 4.35269 17.8341 4.99992V14.9999C17.8341 15.3093 17.7112 15.6061 17.4924 15.8249C17.2736 16.0437 16.9769 16.1666 16.6675 16.1666H3.33415C3.02473 16.1666 2.72798 16.0437 2.50919 15.8249C2.2904 15.6061 2.16748 15.3093 2.16748 14.9999V4.99992C2.16748 4.35106 2.68529 3.83325 3.33415 3.83325Z" stroke="#72767E"/>
</svg>
