<svg viewBox="0 0 16 10" fill="none" xmlns="http://www.w3.org/2000/svg">
  <path d="M7.99984 3C8.53027 3 9.03898 3.21071 9.41405 3.58579C9.78912 3.96086 9.99984 4.46957 9.99984 5C9.99984 5.53043 9.78912 6.03914 9.41405 6.41421C9.03898 6.78929 8.53027 7 7.99984 7C7.4694 7 6.9607 6.78929 6.58562 6.41421C6.21055 6.03914 5.99984 5.53043 5.99984 5C5.99984 4.46957 6.21055 3.96086 6.58562 3.58579C6.9607 3.21071 7.4694 3 7.99984 3ZM7.99984 0C11.3332 0 14.1798 2.07333 15.3332 5C14.1798 7.92667 11.3332 10 7.99984 10C4.6665 10 1.81984 7.92667 0.666504 5C1.81984 2.07333 4.6665 0 7.99984 0ZM2.11984 5C3.21984 7.24 5.49317 8.66667 7.99984 8.66667C10.5065 8.66667 12.7798 7.24 13.8798 5C12.7798 2.76 10.5065 1.33333 7.99984 1.33333C5.49317 1.33333 3.21984 2.76 2.11984 5Z" />
</svg>
  