<svg viewBox="0 0 32 32" fill="none" xmlns="http://www.w3.org/2000/svg">
<path d="M19.5353 19.5355C19.1448 19.9261 18.5116 19.9261 18.1211 19.5355L15.9998 17.4142L13.8784 19.5355C13.4879 19.9261 12.8547 19.9261 12.4642 19.5355C12.0737 19.145 12.0737 18.5118 12.4642 18.1213L14.5855 16L12.4642 13.8787C12.0737 13.4882 12.0737 12.855 12.4642 12.4645C12.8547 12.0739 13.4879 12.0739 13.8784 12.4645L15.9998 14.5858L18.1211 12.4645C18.5116 12.0739 19.1448 12.0739 19.5353 12.4645C19.9258 12.855 19.9258 13.4882 19.5353 13.8787L17.414 16L19.5353 18.1213C19.9258 18.5118 19.9258 19.145 19.5353 19.5355ZM23.0708 8.92893C22.1422 8.00035 21.0399 7.26375 19.8266 6.7612C18.6133 6.25866 17.313 6 15.9998 6C13.3476 6 10.8041 7.05357 8.92869 8.92893C7.05333 10.8043 5.99976 13.3478 5.99976 16C5.99976 17.3132 6.25841 18.6136 6.76096 19.8268C7.26351 21.0401 8.0001 22.1425 8.92869 23.0711C10.8041 24.9464 13.3476 26 15.9998 26C18.6519 26 21.1955 24.9464 23.0708 23.0711C23.9994 22.1425 24.736 21.0401 25.2386 19.8268C25.7411 18.6136 25.9998 17.3132 25.9998 16C25.9998 14.6868 25.7411 13.3864 25.2386 12.1732C24.736 10.9599 23.9994 9.85752 23.0708 8.92893Z" fill="#CC2128"/>
</svg>
