<svg viewBox="0 0 32 32" fill="none" xmlns="http://www.w3.org/2000/svg">
<path d="M1 5C1 2.79086 2.79086 1 5 1H27C29.2091 1 31 2.79086 31 5V27C31 29.2091 29.2091 31 27 31H5C2.79086 31 1 29.2091 1 27V5Z" fill="#1AA772"/>
<path d="M12.3636 22H8V19H12.3636V22ZM12.3636 17.5H8V14.5H12.3636V17.5ZM12.3636 13H8V10H12.3636V13ZM18.1818 22H13.8182V19H18.1818V22ZM18.1818 17.5H13.8182V14.5H18.1818V17.5ZM18.1818 13H13.8182V10H18.1818V13Z" fill="white"/>
<path d="M19.6364 22H24V19H19.6364V22Z" fill="white"/>
<path d="M19.6364 17.5H24V14.5H19.6364V17.5Z" fill="white"/>
<path d="M19.6364 13H24V10H19.6364V13Z" fill="white"/>
</svg>
