<svg viewBox="0 0 32 32" fill="none" xmlns="http://www.w3.org/2000/svg">
<path d="M1 5C1 2.79086 2.79086 1 5 1H27C29.2091 1 31 2.79086 31 5V27C31 29.2091 29.2091 31 27 31H5C2.79086 31 1 29.2091 1 27V5Z" fill="#F28C52"/>
<path d="M23.5001 8.5V18.9167C23.5001 19.6902 23.1928 20.4321 22.6458 20.9791C22.0988 21.526 21.357 21.8333 20.5834 21.8333C19.8099 21.8333 19.068 21.526 18.521 20.9791C17.974 20.4321 17.6667 19.6902 17.6667 18.9167C17.6667 18.1431 17.974 17.4013 18.521 16.8543C19.068 16.3073 19.8099 16 20.5834 16C21.0334 16 21.4584 16.1 21.8334 16.2833V11.3917L13.5001 13.1667V20.5833C13.5001 21.3569 13.1928 22.0987 12.6458 22.6457C12.0988 23.1927 11.357 23.5 10.5834 23.5C9.80987 23.5 9.068 23.1927 8.52102 22.6457C7.97404 22.0987 7.66675 21.3569 7.66675 20.5833C7.66675 19.8098 7.97404 19.0679 8.52102 18.5209C9.068 17.974 9.80987 17.6667 10.5834 17.6667C11.0334 17.6667 11.4584 17.7667 11.8334 17.95V11L23.5001 8.5Z" fill="white"/>
</svg>
