<svg viewBox="0 0 32 32" fill="none" xmlns="http://www.w3.org/2000/svg">
<path d="M1 5C1 2.79086 2.79086 1 5 1H27C29.2091 1 31 2.79086 31 5V27C31 29.2091 29.2091 31 27 31H5C2.79086 31 1 29.2091 1 27V5Z" class="text-accessory-tint-4" fill="currentColor"/>
<path d="M24 14.4V24H8L16 16L19.2 19.2L24 14.4ZM12.8 10.4C12.8 11.0365 12.5471 11.647 12.0971 12.0971C11.647 12.5471 11.0365 12.8 10.4 12.8C9.76348 12.8 9.15303 12.5471 8.70294 12.0971C8.25286 11.647 8 11.0365 8 10.4C8 9.76348 8.25286 9.15303 8.70294 8.70294C9.15303 8.25286 9.76348 8 10.4 8C11.0365 8 11.647 8.25286 12.0971 8.70294C12.5471 9.15303 12.8 9.76348 12.8 10.4Z" fill="white"/>
</svg>
