<svg viewBox="0 0 32 32" fill="none" xmlns="http://www.w3.org/2000/svg">
<path d="M1 5C1 2.79086 2.79086 1 5 1H27C29.2091 1 31 2.79086 31 5V27C31 29.2091 29.2091 31 27 31H5C2.79086 31 1 29.2091 1 27V5Z" fill="#CC2128"/>
<path d="M24.9833 18.2917C24.525 17.5584 23.425 17.2834 21.5916 17.2834C20.95 17.2834 20.3083 17.2834 19.6666 17.375C19.2083 17.1 18.75 16.825 18.3833 16.55C17.4666 15.8167 16.6416 14.4417 16 12.7917C16 12.7917 16 12.7 16.0916 12.6084C16.55 10.6834 17.0083 8.30005 16.0916 7.29172C15.8166 7.01672 15.5416 6.92505 15.175 6.92505H14.8083C14.2583 6.92505 13.8 7.47505 13.6166 8.02505C13.0666 9.95005 13.4333 11.05 13.9833 12.7917C13.6166 14.1667 13.1583 15.6334 12.3333 17.1917C11.875 18.2 11.325 19.1167 10.9583 19.85C10.4083 20.125 9.94995 20.4 9.67495 20.5834C7.93328 21.6834 7.01662 22.9667 6.92495 23.7C6.83328 23.975 6.83328 24.25 6.92495 24.4334V24.525L7.65828 24.9834C7.84162 25.075 8.11662 25.1667 8.29995 25.1667C9.49162 25.1667 10.8666 23.7917 12.7 20.5834C12.7916 20.5834 12.8833 20.4917 12.975 20.4917C14.5333 20.0334 16.3666 19.6667 18.9333 19.3917C20.4 20.125 22.2333 20.4917 23.3333 20.4917C23.975 20.4917 24.4333 20.3084 24.7083 20.0334C24.9833 19.7584 25.075 19.3917 25.1666 19.0251C25.1666 18.75 25.1666 18.475 24.9833 18.2917ZM8.11662 24.1584C8.20828 23.6084 8.84995 22.6 9.94995 21.6834C10.1333 21.5917 10.3166 21.4084 10.6833 21.225C9.58328 22.9667 8.75828 23.8834 8.11662 24.1584ZM14.9 7.93338C14.9916 7.84172 14.9916 7.75005 15.0833 7.75005L15.2666 7.84172C15.5416 8.20838 15.5416 8.66672 15.3583 9.49172V9.76672C15.2666 10.1334 15.2666 10.5 15.0833 10.9584C14.7166 9.58338 14.7166 8.57505 14.9 7.93338ZM13.0666 19.4834L12.8833 19.575C12.975 19.1167 13.3416 18.5667 13.6166 18.0167C14.2583 16.7334 14.8083 15.5417 15.0833 14.4417C15.725 15.8167 16.4583 16.825 17.375 17.6501C17.5583 17.8334 17.7416 18.0167 18.0166 18.1084C16.7333 18.2917 14.9916 18.75 13.0666 19.4834ZM24.1583 19.3917H23.7916C23.15 19.3917 22.05 19.1167 20.95 18.6584C21.0416 18.475 21.225 18.475 21.3166 18.475C23.425 18.475 23.975 18.8417 24.1583 19.0251C24.25 19.1167 24.25 19.1167 24.25 19.2084C24.25 19.3 24.25 19.3 24.1583 19.3917Z" fill="white"/>
</svg>
