<svg viewBox="0 0 20 20" fill="none" xmlns="http://www.w3.org/2000/svg">
<path d="M7.50008 18.3334C7.00008 18.3334 6.66675 18.0001 6.66675 17.5001V15.0001H3.33341C2.41675 15.0001 1.66675 14.2501 1.66675 13.3334V3.33342C1.66675 2.41675 2.41675 1.66675 3.33341 1.66675H16.6667C17.5834 1.66675 18.3334 2.41675 18.3334 3.33342V13.3334C18.3334 14.2501 17.5834 15.0001 16.6667 15.0001H11.5834L8.50008 18.0834C8.33341 18.2501 8.16675 18.3334 7.91675 18.3334H7.50008ZM8.33341 13.3334V15.9168L10.9167 13.3334H16.6667V3.33342H3.33341V13.3334H8.33341ZM13.5834 5.00008L12.4167 7.50008H14.1667V10.8334H10.8334V7.33342L11.9167 5.00008H13.5834ZM8.58341 5.00008L7.41675 7.50008H9.16675V10.8334H5.83341V7.33342L6.91675 5.00008H8.58341Z"/>
</svg>
