<svg viewBox="0 0 20 20" fill="none" xmlns="http://www.w3.org/2000/svg">
<path d="M17.5758 10V16C17.5758 16.3978 17.4162 16.7794 17.1321 17.0607C16.8479 17.342 16.4625 17.5 16.0607 17.5H3.93948C3.53763 17.5 3.15225 17.342 2.8681 17.0607C2.58396 16.7794 2.42432 16.3978 2.42432 16V10C2.2234 10 2.03071 9.92098 1.88864 9.78033C1.74656 9.63968 1.66675 9.44891 1.66675 9.25V7C1.66675 6.60218 1.82638 6.22064 2.11053 5.93934C2.39467 5.65804 2.78006 5.5 3.1819 5.5H5.58342C5.50008 5.2675 5.45463 5.0125 5.45463 4.75C5.45463 4.15326 5.69407 3.58097 6.12029 3.15901C6.54651 2.73705 7.12459 2.5 7.72735 2.5C8.48493 2.5 9.1516 2.875 9.56826 3.43V3.4225L10.0001 4L10.4319 3.4225V3.43C10.8486 2.875 11.5152 2.5 12.2728 2.5C12.8756 2.5 13.4537 2.73705 13.8799 3.15901C14.3061 3.58097 14.5455 4.15326 14.5455 4.75C14.5455 5.0125 14.5001 5.2675 14.4167 5.5H16.8183C17.2201 5.5 17.6055 5.65804 17.8896 5.93934C18.1738 6.22064 18.3334 6.60218 18.3334 7V9.25C18.3334 9.44891 18.2536 9.63968 18.1115 9.78033C17.9695 9.92098 17.7768 10 17.5758 10ZM3.93948 16H9.24251V10H3.93948V16ZM16.0607 16V10H10.7577V16H16.0607ZM7.72735 4C7.52643 4 7.33374 4.07902 7.19167 4.21967C7.04959 4.36032 6.96978 4.55109 6.96978 4.75C6.96978 4.94891 7.04959 5.13968 7.19167 5.28033C7.33374 5.42098 7.52643 5.5 7.72735 5.5C7.92828 5.5 8.12097 5.42098 8.26304 5.28033C8.40511 5.13968 8.48493 4.94891 8.48493 4.75C8.48493 4.55109 8.40511 4.36032 8.26304 4.21967C8.12097 4.07902 7.92828 4 7.72735 4ZM12.2728 4C12.0719 4 11.8792 4.07902 11.7371 4.21967C11.595 4.36032 11.5152 4.55109 11.5152 4.75C11.5152 4.94891 11.595 5.13968 11.7371 5.28033C11.8792 5.42098 12.0719 5.5 12.2728 5.5C12.4737 5.5 12.6664 5.42098 12.8085 5.28033C12.9506 5.13968 13.0304 4.94891 13.0304 4.75C13.0304 4.55109 12.9506 4.36032 12.8085 4.21967C12.6664 4.07902 12.4737 4 12.2728 4ZM3.1819 7V8.5H9.24251V7H3.1819ZM10.7577 7V8.5H16.8183V7H10.7577Z"/>
</svg>
