<svg viewBox="0 0 20 20" fill="none" xmlns="http://www.w3.org/2000/svg">
<path fill-rule="evenodd" clip-rule="evenodd" d="M1.75024 4.10838L2.92869 2.92993L17.0708 17.0721L15.8924 18.2505L13.1001 15.4583V16.5001H11.5001L11.5001 13.8582L10.6419 13.0001H8.60013V16.5001H7.00013L7.00013 13.0001L3.50012 13.0001L3.50012 11.4001H7.00013V9.35826L6.14193 8.50006H3.50012L3.50012 6.90006H4.54193L1.75024 4.10838ZM8.60013 11.4001V10.9583L9.04193 11.4001H8.60013Z" />
<path d="M15.3558 13.0001H16.5001V11.4001H13.7558L15.3558 13.0001Z" />
<path d="M13.1001 10.7443V8.50006L16.5001 8.50006V6.90006L13.1001 6.90006V3.50006L11.5001 3.50006V6.90006L9.25584 6.90006L10.8558 8.50006H11.5001V9.14434L13.1001 10.7443Z" />
<path d="M8.60013 6.24434V3.50006H7.00013V4.64434L8.60013 6.24434Z" />
<path d="M8.60013 10.9583V11.4001H9.04193L8.60013 10.9583Z" />
<path d="M11.5001 8.50006H10.8558L11.5001 9.14434V8.50006Z" />
</svg>
