<svg viewBox="0 0 20 20" fill="none" xmlns="http://www.w3.org/2000/svg">
<path d="M12.5584 9.37508L11.8084 10.1417C11.2084 10.7417 10.8334 11.2501 10.8334 12.5001H9.16675V12.0834C9.16675 11.1584 9.54175 10.3251 10.1417 9.72508L11.1751 8.67508C11.4834 8.37508 11.6667 7.95842 11.6667 7.50008C11.6667 6.57508 10.9167 5.83342 10.0001 5.83342C9.55805 5.83342 9.13413 6.00901 8.82157 6.32157C8.50901 6.63413 8.33341 7.05805 8.33341 7.50008H6.66675C6.66675 6.61603 7.01794 5.76818 7.64306 5.14306C8.26818 4.51794 9.11603 4.16675 10.0001 4.16675C10.8841 4.16675 11.732 4.51794 12.3571 5.14306C12.9822 5.76818 13.3334 6.61603 13.3334 7.50008C13.3334 8.23342 13.0334 8.89175 12.5584 9.37508ZM10.8334 15.8334H9.16675V14.1667H10.8334V15.8334ZM10.0001 1.66675C8.90573 1.66675 7.8221 1.8823 6.81105 2.30109C5.80001 2.71987 4.88135 3.3337 4.10752 4.10753C2.54472 5.67033 1.66675 7.78995 1.66675 10.0001C1.66675 12.2102 2.54472 14.3298 4.10752 15.8926C4.88135 16.6665 5.80001 17.2803 6.81105 17.6991C7.8221 18.1179 8.90573 18.3334 10.0001 18.3334C12.2102 18.3334 14.3298 17.4554 15.8926 15.8926C17.4554 14.3298 18.3334 12.2102 18.3334 10.0001C18.3334 5.39175 14.5834 1.66675 10.0001 1.66675Z"/>
</svg>
