<svg viewBox="0 0 20 20" fill="currentColor" xmlns="http://www.w3.org/2000/svg">
<path fill-rule="evenodd" clip-rule="evenodd" d="M6.26782 17.2H11.1079L11.2395 16.319L11.127 16.2497C10.9396 16.1343 10.7242 16.0353 10.4827 15.9516C10.3151 15.8906 10.1444 15.8371 9.97052 15.7911L12.0792 4.24439C12.2777 4.19574 12.4876 4.1383 12.7086 4.07175L12.7172 4.06874C12.9882 3.97353 13.2425 3.8712 13.4798 3.76163L13.5744 3.71794L13.739 2.80005H8.90177L8.7153 3.69176L8.85556 3.75993C9.07673 3.86742 9.29215 3.96856 9.50205 4.06278L9.51225 4.06671C9.67272 4.12845 9.83933 4.18242 10.012 4.22871L7.90481 15.7677C7.4439 15.8573 6.97592 16.015 6.50115 16.2392L6.40453 16.2848L6.26782 17.2ZM6.5 17L6.58663 16.42C6.58666 16.42 6.5866 16.42 6.58663 16.42L6.5 17ZM8.07665 15.94C8.07663 15.94 8.07668 15.94 8.07665 15.94V15.94Z"/>
</svg>
