<svg viewBox="0 0 20 20" fill="none" xmlns="http://www.w3.org/2000/svg">
  <path
    d="M3.33341 4.16675C2.89139 4.16675 2.46746 4.34234 2.1549 4.6549C1.84234 4.96746 1.66675 5.39139 1.66675 5.83341V14.1667C1.66675 14.6088 1.84234 15.0327 2.1549 15.3453C2.46746 15.6578 2.89139 15.8334 3.33341 15.8334H16.6667C17.1088 15.8334 17.5327 15.6578 17.8453 15.3453C18.1578 15.0327 18.3334 14.6088 18.3334 14.1667V5.83341C18.3334 5.39139 18.1578 4.96746 17.8453 4.6549C17.5327 4.34234 17.1088 4.16675 16.6667 4.16675H3.33341ZM3.33341 5.83341H16.6667V14.1667H3.33341V5.83341ZM4.16675 6.66675V8.33342H5.83341V6.66675H4.16675ZM6.66675 6.66675V8.33342H8.33341V6.66675H6.66675ZM9.16675 6.66675V8.33342H10.8334V6.66675H9.16675ZM11.6667 6.66675V8.33342H13.3334V6.66675H11.6667ZM14.1667 6.66675V8.33342H15.8334V6.66675H14.1667ZM4.16675 9.16675V10.8334H5.83341V9.16675H4.16675ZM6.66675 9.16675V10.8334H8.33341V9.16675H6.66675ZM9.16675 9.16675V10.8334H10.8334V9.16675H9.16675ZM11.6667 9.16675V10.8334H13.3334V9.16675H11.6667ZM14.1667 9.16675V10.8334H15.8334V9.16675H14.1667ZM6.66675 11.6667V13.3334H13.3334V11.6667H6.66675Z" />
</svg>