<svg viewBox="0 0 20 20" fill="none" xmlns="http://www.w3.org/2000/svg">
<path d="M3.33341 2.5C2.89139 2.5 2.46746 2.67559 2.1549 2.98816C1.84234 3.30072 1.66675 3.72464 1.66675 4.16667V12.5C1.66675 12.942 1.84234 13.366 2.1549 13.6785C2.46746 13.9911 2.89139 14.1667 3.33341 14.1667H16.6667C17.1088 14.1667 17.5327 13.9911 17.8453 13.6785C18.1578 13.366 18.3334 12.942 18.3334 12.5V4.16667C18.3334 3.72464 18.1578 3.30072 17.8453 2.98816C17.5327 2.67559 17.1088 2.5 16.6667 2.5H3.33341ZM3.33341 4.16667H16.6667V12.5H3.33341V4.16667ZM4.16675 5V6.66667H5.83341V5H4.16675ZM6.66675 5V6.66667H8.33341V5H6.66675ZM9.16675 5V6.66667H10.8334V5H9.16675ZM11.6667 5V6.66667H13.3334V5H11.6667ZM14.1667 5V6.66667H15.8334V5H14.1667ZM4.16675 7.5V9.16667H5.83341V7.5H4.16675ZM6.66675 7.5V9.16667H8.33341V7.5H6.66675ZM9.16675 7.5V9.16667H10.8334V7.5H9.16675ZM11.6667 7.5V9.16667H13.3334V7.5H11.6667ZM14.1667 7.5V9.16667H15.8334V7.5H14.1667ZM6.66675 10V11.6667H13.3334V10H6.66675Z"/>
<path d="M13.3334 15.8333L10.0001 19.1666L6.66675 15.8333H13.3334Z"/>
</svg>
