<svg viewBox="0 0 20 20" fill="none" xmlns="http://www.w3.org/2000/svg">
<path d="M15.8334 8.33342H14.1667V6.66675H15.8334V8.33342ZM15.8334 10.8334H14.1667V9.16675H15.8334V10.8334ZM13.3334 8.33342H11.6667V6.66675H13.3334V8.33342ZM13.3334 10.8334H11.6667V9.16675H13.3334V10.8334ZM13.3334 14.1667H6.66675V12.5001H13.3334V14.1667ZM5.83342 8.33342H4.16675V6.66675H5.83342V8.33342ZM5.83342 10.8334H4.16675V9.16675H5.83342V10.8334ZM6.66675 9.16675H8.33342V10.8334H6.66675V9.16675ZM6.66675 6.66675H8.33342V8.33342H6.66675V6.66675ZM9.16675 9.16675H10.8334V10.8334H9.16675V9.16675ZM9.16675 6.66675H10.8334V8.33342H9.16675V6.66675ZM16.6667 4.16675H3.33341C2.40841 4.16675 1.66675 4.90841 1.66675 5.83341V14.1667C1.66675 14.6088 1.84234 15.0327 2.1549 15.3453C2.46746 15.6578 2.89139 15.8334 3.33341 15.8334H16.6667C17.1088 15.8334 17.5327 15.6578 17.8453 15.3453C18.1578 15.0327 18.3334 14.6088 18.3334 14.1667V5.83341C18.3334 4.90841 17.5834 4.16675 16.6667 4.16675Z"/>
</svg>
