<svg viewBox="0 0 20 20" fill="none" xmlns="http://www.w3.org/2000/svg">
<path d="M3.33341 5.83325C2.89139 5.83325 2.46746 6.00885 2.1549 6.32141C1.84234 6.63397 1.66675 7.05789 1.66675 7.49992V15.8333C1.66675 16.2753 1.84234 16.6992 2.1549 17.0118C2.46746 17.3243 2.89139 17.4999 3.33341 17.4999H16.6667C17.1088 17.4999 17.5327 17.3243 17.8453 17.0118C18.1578 16.6992 18.3334 16.2753 18.3334 15.8333V7.49992C18.3334 7.05789 18.1578 6.63397 17.8453 6.32141C17.5327 6.00885 17.1088 5.83325 16.6667 5.83325H3.33341ZM3.33341 7.49992H16.6667V15.8333H3.33341V7.49992ZM4.16675 8.33325V9.99992H5.83341V8.33325H4.16675ZM6.66675 8.33325V9.99992H8.33341V8.33325H6.66675ZM9.16675 8.33325V9.99992H10.8334V8.33325H9.16675ZM11.6667 8.33325V9.99992H13.3334V8.33325H11.6667ZM14.1667 8.33325V9.99992H15.8334V8.33325H14.1667ZM4.16675 10.8333V12.4999H5.83341V10.8333H4.16675ZM6.66675 10.8333V12.4999H8.33341V10.8333H6.66675ZM9.16675 10.8333V12.4999H10.8334V10.8333H9.16675ZM11.6667 10.8333V12.4999H13.3334V10.8333H11.6667ZM14.1667 10.8333V12.4999H15.8334V10.8333H14.1667ZM6.66675 13.3333V14.9999H13.3334V13.3333H6.66675Z"/>
<path d="M6.66683 3.83325L10.0002 0.499919L13.3335 3.83325L6.66683 3.83325Z"/>
</svg>
