<svg viewBox="0 0 20 20" fill="none" xmlns="http://www.w3.org/2000/svg">
<path d="M5.00008 1.66675C5.88414 1.66675 6.73198 2.01794 7.35711 2.64306C7.98223 3.26818 8.33342 4.11603 8.33342 5.00008V6.66675H11.6667V5.00008C11.6667 4.11603 12.0179 3.26818 12.6431 2.64306C13.2682 2.01794 14.116 1.66675 15.0001 1.66675C15.8841 1.66675 16.732 2.01794 17.3571 2.64306C17.9822 3.26818 18.3334 4.11603 18.3334 5.00008C18.3334 5.88414 17.9822 6.73198 17.3571 7.35711C16.732 7.98223 15.8841 8.33342 15.0001 8.33342H13.3334V11.6667H15.0001C15.8841 11.6667 16.732 12.0179 17.3571 12.6431C17.9822 13.2682 18.3334 14.116 18.3334 15.0001C18.3334 15.8841 17.9822 16.732 17.3571 17.3571C16.732 17.9822 15.8841 18.3334 15.0001 18.3334C14.116 18.3334 13.2682 17.9822 12.6431 17.3571C12.0179 16.732 11.6667 15.8841 11.6667 15.0001V13.3334H8.33342V15.0001C8.33342 15.8841 7.98223 16.732 7.35711 17.3571C6.73198 17.9822 5.88414 18.3334 5.00008 18.3334C4.11603 18.3334 3.26818 17.9822 2.64306 17.3571C2.01794 16.732 1.66675 15.8841 1.66675 15.0001C1.66675 14.116 2.01794 13.2682 2.64306 12.6431C3.26818 12.0179 4.11603 11.6667 5.00008 11.6667H6.66675V8.33342H5.00008C4.11603 8.33342 3.26818 7.98223 2.64306 7.35711C2.01794 6.73198 1.66675 5.88414 1.66675 5.00008C1.66675 4.11603 2.01794 3.26818 2.64306 2.64306C3.26818 2.01794 4.11603 1.66675 5.00008 1.66675ZM13.3334 15.0001C13.3334 15.4421 13.509 15.866 13.8216 16.1786C14.1341 16.4912 14.5581 16.6668 15.0001 16.6668C15.4421 16.6668 15.866 16.4912 16.1786 16.1786C16.4912 15.866 16.6668 15.4421 16.6668 15.0001C16.6668 14.5581 16.4912 14.1341 16.1786 13.8216C15.866 13.509 15.4421 13.3334 15.0001 13.3334H13.3334V15.0001ZM11.6667 8.33342H8.33342V11.6667H11.6667V8.33342ZM5.00008 13.3334C4.55805 13.3334 4.13413 13.509 3.82157 13.8216C3.50901 14.1341 3.33342 14.5581 3.33342 15.0001C3.33342 15.4421 3.50901 15.866 3.82157 16.1786C4.13413 16.4912 4.55805 16.6668 5.00008 16.6668C5.44211 16.6668 5.86603 16.4912 6.17859 16.1786C6.49115 15.866 6.66675 15.4421 6.66675 15.0001V13.3334H5.00008ZM6.66675 5.00008C6.66675 4.55805 6.49115 4.13413 6.17859 3.82157C5.86603 3.50901 5.44211 3.33342 5.00008 3.33342C4.55805 3.33342 4.13413 3.50901 3.82157 3.82157C3.50901 4.13413 3.33342 4.55805 3.33342 5.00008C3.33342 5.44211 3.50901 5.86603 3.82157 6.17859C4.13413 6.49115 4.55805 6.66675 5.00008 6.66675H6.66675V5.00008ZM15.0001 6.66675C15.4421 6.66675 15.866 6.49115 16.1786 6.17859C16.4912 5.86603 16.6668 5.44211 16.6668 5.00008C16.6668 4.55805 16.4912 4.13413 16.1786 3.82157C15.866 3.50901 15.4421 3.33342 15.0001 3.33342C14.5581 3.33342 14.1341 3.50901 13.8216 3.82157C13.509 4.13413 13.3334 4.55805 13.3334 5.00008V6.66675H15.0001Z"/>
</svg>
