<svg viewBox="0 0 20 20" fill="none" xmlns="http://www.w3.org/2000/svg">
  <path fill-rule="evenodd" clip-rule="evenodd"
    d="M4.28571 3.6H15.7143C16.093 3.6 16.4 3.907 16.4 4.28571V15.7143C16.4 16.093 16.093 16.4 15.7143 16.4H4.28571C3.907 16.4 3.6 16.093 3.6 15.7143V4.28571C3.6 3.907 3.907 3.6 4.28571 3.6ZM2 4.28571C2 3.02335 3.02335 2 4.28571 2H15.7143C16.9767 2 18 3.02335 18 4.28571V15.7143C18 16.9767 16.9767 18 15.7143 18H4.28571C3.02335 18 2 16.9767 2 15.7143V4.28571ZM9.8045 6.31638C9.94745 6.27119 10.1703 6.24105 10.473 6.22599V6C10.0105 6.0226 9.35045 6.0339 8.49279 6.0339C7.59309 6.0339 6.92883 6.0226 6.5 6V6.22599C6.77748 6.24105 6.97928 6.27119 7.10541 6.31638C7.23994 6.36158 7.32823 6.44821 7.37027 6.57627C7.42072 6.70433 7.44595 6.91149 7.44595 7.19774V12.8023C7.44595 13.0885 7.42072 13.2957 7.37027 13.4237C7.32823 13.5518 7.23994 13.6384 7.10541 13.6836C6.97928 13.7288 6.77748 13.7589 6.5 13.774V14C7.40811 13.9774 8.77868 13.9661 10.6117 13.9661C11.9655 13.9661 12.9282 13.9774 13.5 14C13.4411 13.533 13.4117 12.9379 13.4117 12.2147C13.4117 11.8079 13.4243 11.4765 13.4495 11.2203H13.1595C13.0333 11.9812 12.7601 12.5913 12.3396 13.0508C11.9276 13.5104 11.4357 13.7401 10.864 13.7401H10.2459C10.0105 13.7401 9.83814 13.7213 9.72883 13.6836C9.62793 13.646 9.55646 13.5744 9.51441 13.4689C9.47237 13.3559 9.45135 13.1789 9.45135 12.9379V7.19774C9.45135 6.91149 9.47658 6.70433 9.52703 6.57627C9.57748 6.44821 9.66997 6.36158 9.8045 6.31638Z"
    fill="currentColor" />
</svg>