<svg viewBox="0 0 20 20" fill="currentColor" xmlns="http://www.w3.org/2000/svg">
<path d="M8.82493 11.1749C9.1666 11.4999 9.1666 12.0333 8.82493 12.3583C8.49993 12.6833 7.9666 12.6833 7.6416 12.3583C6.0166 10.7333 6.0166 8.0916 7.6416 6.4666L10.5916 3.5166C12.2166 1.8916 14.8583 1.8916 16.4833 3.5166C18.1083 5.1416 18.1083 7.78327 16.4833 9.40827L15.2416 10.6499C15.2499 9.9666 15.1416 9.28327 14.9083 8.63327L15.2999 8.23327C16.2833 7.25827 16.2833 5.67493 15.2999 4.69993C14.3249 3.7166 12.7416 3.7166 11.7666 4.69993L8.82493 7.6416C7.8416 8.6166 7.8416 10.1999 8.82493 11.1749ZM11.1749 7.6416C11.4999 7.3166 12.0333 7.3166 12.3583 7.6416C13.9833 9.2666 13.9833 11.9083 12.3583 13.5333L9.40827 16.4833C7.78327 18.1083 5.1416 18.1083 3.5166 16.4833C1.8916 14.8583 1.8916 12.2166 3.5166 10.5916L4.75827 9.34994C4.74993 10.0333 4.85827 10.7166 5.0916 11.3749L4.69993 11.7666C3.7166 12.7416 3.7166 14.3249 4.69993 15.2999C5.67493 16.2833 7.25827 16.2833 8.23327 15.2999L11.1749 12.3583C12.1583 11.3833 12.1583 9.79993 11.1749 8.82493C10.8333 8.49994 10.8333 7.9666 11.1749 7.6416Z"/>
</svg>
