<svg viewBox="0 0 20 20" fill="none" xmlns="http://www.w3.org/2000/svg">
<path d="M16.4917 12.8417C17.2834 11.0334 17.2834 8.95842 16.4917 7.15842L14.2084 8.19175C14.7084 9.34175 14.7084 10.6501 14.2167 11.8084L16.4917 12.8417ZM12.8501 3.50841C11.0417 2.71675 8.96675 2.71675 7.15842 3.50841L8.19175 5.78341C9.35008 5.29175 10.6584 5.29175 11.8167 5.79175L12.8501 3.50841ZM3.50841 7.15008C2.71675 8.96675 2.71675 11.0334 3.50841 12.8501L5.79175 11.8084C5.29175 10.6584 5.29175 9.34175 5.79175 8.18341L3.50841 7.15008ZM7.15842 16.4917C8.96675 17.2834 11.0417 17.2834 12.8501 16.4834L11.8167 14.2084C10.6667 14.7084 9.35008 14.7084 8.20008 14.2167L7.15842 16.4917ZM10.0001 1.66675C11.0944 1.66675 12.1781 1.8823 13.1891 2.30109C14.2002 2.71987 15.1188 3.3337 15.8926 4.10752C16.6665 4.88135 17.2803 5.80001 17.6991 6.81105C18.1179 7.8221 18.3334 8.90573 18.3334 10.0001C18.3334 12.2102 17.4554 14.3298 15.8926 15.8926C14.3298 17.4554 12.2102 18.3334 10.0001 18.3334C8.90573 18.3334 7.8221 18.1179 6.81105 17.6991C5.80001 17.2803 4.88135 16.6665 4.10752 15.8926C2.54472 14.3298 1.66675 12.2102 1.66675 10.0001C1.66675 7.78994 2.54472 5.67033 4.10752 4.10752C5.67033 2.54472 7.78994 1.66675 10.0001 1.66675ZM10.0001 6.66675C9.11603 6.66675 8.26818 7.01794 7.64306 7.64306C7.01794 8.26818 6.66675 9.11603 6.66675 10.0001C6.66675 10.8841 7.01794 11.732 7.64306 12.3571C8.26818 12.9822 9.11603 13.3334 10.0001 13.3334C10.8841 13.3334 11.732 12.9822 12.3571 12.3571C12.9822 11.732 13.3334 10.8841 13.3334 10.0001C13.3334 9.11603 12.9822 8.26818 12.3571 7.64306C11.732 7.01794 10.8841 6.66675 10.0001 6.66675Z"/>
</svg>
