<svg viewBox="0 0 20 20" fill="none" xmlns="http://www.w3.org/2000/svg">
  <path
    d="M9.99992 14.1666C10.4419 14.1666 10.8659 13.991 11.1784 13.6784C11.491 13.3659 11.6666 12.9419 11.6666 12.4999C11.6666 11.5749 10.9166 10.8333 9.99992 10.8333C9.55789 10.8333 9.13397 11.0088 8.82141 11.3214C8.50885 11.634 8.33325 12.0579 8.33325 12.4999C8.33325 12.9419 8.50885 13.3659 8.82141 13.6784C9.13397 13.991 9.55789 14.1666 9.99992 14.1666ZM14.9999 6.66659C15.4419 6.66659 15.8659 6.84218 16.1784 7.15474C16.491 7.4673 16.6666 7.89123 16.6666 8.33325V16.6666C16.6666 17.1086 16.491 17.5325 16.1784 17.8451C15.8659 18.1577 15.4419 18.3333 14.9999 18.3333H4.99992C4.55789 18.3333 4.13397 18.1577 3.82141 17.8451C3.50885 17.5325 3.33325 17.1086 3.33325 16.6666V8.33325C3.33325 7.40825 4.08325 6.66659 4.99992 6.66659H5.83325V4.99992C5.83325 3.89485 6.27224 2.83504 7.05364 2.05364C7.83504 1.27224 8.89485 0.833252 9.99992 0.833252C10.5471 0.833252 11.0889 0.941026 11.5944 1.15042C12.1 1.35982 12.5593 1.66673 12.9462 2.05364C13.3331 2.44055 13.64 2.89988 13.8494 3.4054C14.0588 3.91093 14.1666 4.45274 14.1666 4.99992V6.66659H14.9999ZM9.99992 2.49992C9.33688 2.49992 8.70099 2.76331 8.23215 3.23215C7.76331 3.70099 7.49992 4.33688 7.49992 4.99992V6.66659H12.4999V4.99992C12.4999 4.33688 12.2365 3.70099 11.7677 3.23215C11.2988 2.76331 10.663 2.49992 9.99992 2.49992Z" />
</svg>