<svg viewBox="0 0 20 20" fill="currentColor" xmlns="http://www.w3.org/2000/svg">
<path d="M5.83325 3.16667H17.4999V4.83333H5.83325V3.16667ZM5.83325 10.8333V9.16667H17.4999V10.8333H5.83325ZM3.33325 2.75C3.66477 2.75 3.98272 2.8817 4.21714 3.11612C4.45156 3.35054 4.58325 3.66848 4.58325 4C4.58325 4.33152 4.45156 4.64946 4.21714 4.88388C3.98272 5.1183 3.66477 5.25 3.33325 5.25C3.00173 5.25 2.68379 5.1183 2.44937 4.88388C2.21495 4.64946 2.08325 4.33152 2.08325 4C2.08325 3.66848 2.21495 3.35054 2.44937 3.11612C2.68379 2.8817 3.00173 2.75 3.33325 2.75ZM3.33325 8.75C3.66477 8.75 3.98272 8.8817 4.21714 9.11612C4.45156 9.35054 4.58325 9.66848 4.58325 10C4.58325 10.3315 4.45156 10.6495 4.21714 10.8839C3.98272 11.1183 3.66477 11.25 3.33325 11.25C3.00173 11.25 2.68379 11.1183 2.44937 10.8839C2.21495 10.6495 2.08325 10.3315 2.08325 10C2.08325 9.66848 2.21495 9.35054 2.44937 9.11612C2.68379 8.8817 3.00173 8.75 3.33325 8.75ZM5.83325 16.8333V15.1667H17.4999V16.8333H5.83325ZM3.33325 14.75C3.66477 14.75 3.98272 14.8817 4.21714 15.1161C4.45156 15.3505 4.58325 15.6685 4.58325 16C4.58325 16.3315 4.45156 16.6495 4.21714 16.8839C3.98272 17.1183 3.66477 17.25 3.33325 17.25C3.00173 17.25 2.68379 17.1183 2.44937 16.8839C2.21495 16.6495 2.08325 16.3315 2.08325 16C2.08325 15.6685 2.21495 15.3505 2.44937 15.1161C2.68379 14.8817 3.00173 14.75 3.33325 14.75Z" />
</svg>
