<svg viewBox="0 0 20 20" fill="currentColor" xmlns="http://www.w3.org/2000/svg">
<path d="M5.83325 3.16675H17.4999V4.83341H5.83325V3.16675ZM5.83325 10.8334V9.16675H17.4999V10.8334H5.83325ZM5.83325 16.8334V15.1667H17.4999V16.8334H5.83325Z" />
<path d="M4.02415 2.36364V6H3.03693V3.27273H3.01562L2.22017 3.74858V2.91051L3.11506 2.36364H4.02415Z" />
<path d="M2.24148 12V11.2898L3.59801 10.1676C3.68797 10.093 3.76491 10.0232 3.82884 9.9581C3.89394 9.89181 3.94366 9.82375 3.97798 9.75391C4.01349 9.68407 4.03125 9.60653 4.03125 9.52131C4.03125 9.42779 4.01113 9.34789 3.97088 9.28161C3.93182 9.21532 3.87737 9.16442 3.80753 9.12891C3.73769 9.09221 3.6572 9.07386 3.56605 9.07386C3.47491 9.07386 3.39441 9.09221 3.32457 9.12891C3.25592 9.1656 3.20265 9.21946 3.16477 9.29048C3.12689 9.36151 3.10795 9.44792 3.10795 9.54972H2.17045C2.17045 9.29403 2.22786 9.07386 2.34268 8.8892C2.4575 8.70455 2.61967 8.5625 2.82919 8.46307C3.03871 8.36364 3.28433 8.31392 3.56605 8.31392C3.85724 8.31392 4.10938 8.36068 4.32244 8.45419C4.5367 8.54652 4.70182 8.67673 4.81783 8.84482C4.93501 9.0129 4.99361 9.20999 4.99361 9.43608C4.99361 9.57576 4.96461 9.71484 4.90661 9.85334C4.8486 9.99065 4.74444 10.1428 4.59411 10.3097C4.44377 10.4766 4.23011 10.6754 3.95312 10.9062L3.61222 11.1903V11.2116H5.03267V12H2.24148Z" />
<path d="M3.66193 18.0497C3.37547 18.0497 3.12098 18.0006 2.89844 17.9023C2.67708 17.8029 2.50308 17.6662 2.37642 17.4922C2.24976 17.3182 2.18584 17.1181 2.18466 16.892H3.17898C3.18016 16.9619 3.20147 17.0246 3.2429 17.0803C3.28551 17.1347 3.34351 17.1773 3.4169 17.2081C3.49029 17.2389 3.57434 17.2543 3.66903 17.2543C3.76018 17.2543 3.84067 17.2383 3.91051 17.2063C3.98035 17.1732 4.0348 17.1276 4.07386 17.0696C4.11293 17.0116 4.13187 16.9453 4.13068 16.8707C4.13187 16.7973 4.10938 16.7322 4.06321 16.6754C4.01823 16.6186 3.9549 16.5742 3.87322 16.5423C3.79155 16.5103 3.69744 16.4943 3.59091 16.4943H3.22159V15.8125H3.59091C3.68916 15.8125 3.77557 15.7965 3.85014 15.7646C3.9259 15.7326 3.98449 15.6882 4.02592 15.6314C4.06854 15.5746 4.08925 15.5095 4.08807 15.4361C4.08925 15.3651 4.07209 15.3023 4.03658 15.2479C4.00107 15.1934 3.95135 15.1508 3.88743 15.12C3.82469 15.0893 3.75189 15.0739 3.66903 15.0739C3.57907 15.0739 3.49858 15.0898 3.42756 15.1218C3.35772 15.1538 3.30268 15.1982 3.26243 15.255C3.22218 15.3118 3.20147 15.3769 3.20028 15.4503H2.25568C2.25687 15.2277 2.31783 15.0312 2.43857 14.8608C2.56049 14.6903 2.72739 14.5566 2.93928 14.4595C3.15116 14.3625 3.39441 14.3139 3.66903 14.3139C3.93774 14.3139 4.17507 14.3595 4.38104 14.4506C4.58819 14.5418 4.74976 14.6673 4.86577 14.8271C4.98295 14.9857 5.04096 15.1674 5.03977 15.3722C5.04214 15.5758 4.9723 15.7427 4.83026 15.8729C4.68939 16.0031 4.51065 16.08 4.29403 16.1037V16.1321C4.58759 16.1641 4.80836 16.254 4.95632 16.402C5.10429 16.5488 5.17708 16.7334 5.17472 16.956C5.1759 17.169 5.11198 17.3578 4.98295 17.5224C4.85511 17.6869 4.67696 17.8159 4.44851 17.9094C4.22124 18.003 3.95904 18.0497 3.66193 18.0497Z" />
</svg>
