<svg viewBox="0 0 20 20" fill="currentColor" xmlns="http://www.w3.org/2000/svg">
<path d="M11.9999 8.6665C11.5579 8.6665 11.134 8.49091 10.8214 8.17835C10.5088 7.86579 10.3333 7.44187 10.3333 6.99984C10.3333 6.55781 10.5088 6.13389 10.8214 5.82133C11.134 5.50877 11.5579 5.33317 11.9999 5.33317C12.4419 5.33317 12.8659 5.50877 13.1784 5.82133C13.491 6.13389 13.6666 6.55781 13.6666 6.99984C13.6666 7.44187 13.491 7.86579 13.1784 8.17835C12.8659 8.49091 12.4419 8.6665 11.9999 8.6665ZM11.9999 13.6665C11.5579 13.6665 11.134 13.4909 10.8214 13.1783C10.5088 12.8658 10.3333 12.4419 10.3333 11.9998C10.3333 11.5578 10.5088 11.1339 10.8214 10.8213C11.134 10.5088 11.5579 10.3332 11.9999 10.3332C12.4419 10.3332 12.8659 10.5088 13.1784 10.8213C13.491 11.1339 13.6666 11.5578 13.6666 11.9998C13.6666 12.4419 13.491 12.8658 13.1784 13.1783C12.8659 13.4909 12.4419 13.6665 11.9999 13.6665ZM11.9999 18.6665C11.5579 18.6665 11.134 18.4909 10.8214 18.1783C10.5088 17.8658 10.3333 17.4419 10.3333 16.9998C10.3333 16.5578 10.5088 16.1339 10.8214 15.8213C11.134 15.5088 11.5579 15.3332 11.9999 15.3332C12.4419 15.3332 12.8659 15.5088 13.1784 15.8213C13.491 16.1339 13.6666 16.5578 13.6666 16.9998C13.6666 17.4419 13.491 17.8658 13.1784 18.1783C12.8659 18.4909 12.4419 18.6665 11.9999 18.6665Z"/>
</svg>
