<svg viewBox="0 0 20 20" fill="none" xmlns="http://www.w3.org/2000/svg">
<path d="M10.0049 16.6729C6.32919 16.6729 3.33692 13.6807 3.33692 10.0049C3.33692 6.32919 6.32919 3.33692 10.0049 3.33692C13.6807 3.33692 16.6729 6.32919 16.6729 10.0049C16.6729 13.6807 13.6807 16.6729 10.0049 16.6729ZM10.0049 1.66992C8.91035 1.66992 7.8265 1.88551 6.81526 2.30439C5.80401 2.72326 4.88516 3.33721 4.11119 4.11119C2.54807 5.6743 1.66992 7.79434 1.66992 10.0049C1.66992 12.2155 2.54807 14.3355 4.11119 15.8987C4.88516 16.6726 5.80401 17.2866 6.81526 17.7055C7.8265 18.1243 8.91035 18.3399 10.0049 18.3399C12.2155 18.3399 14.3355 17.4618 15.8987 15.8987C17.4618 14.3355 18.3399 12.2155 18.3399 10.0049C18.3399 8.91035 18.1243 7.8265 17.7055 6.81526C17.2866 5.80401 16.6726 4.88516 15.8987 4.11119C15.1247 3.33721 14.2058 2.72326 13.1946 2.30439C12.1833 1.88551 11.0995 1.66992 10.0049 1.66992ZM10.8384 6.67092C10.8384 6.21059 10.4653 5.83742 10.0049 5.83742C9.54459 5.83742 9.17142 6.21059 9.17142 6.67092V9.17142H6.67092C6.21059 9.17142 5.83742 9.54459 5.83742 10.0049C5.83742 10.4653 6.21059 10.8384 6.67092 10.8384H9.17142V13.3389C9.17142 13.7993 9.54459 14.1724 10.0049 14.1724C10.4653 14.1724 10.8384 13.7993 10.8384 13.3389V10.8384H13.3389C13.7993 10.8384 14.1724 10.4653 14.1724 10.0049C14.1724 9.54459 13.7993 9.17142 13.3389 9.17142H10.8384V6.67092Z"/>
</svg>
