<svg viewBox="0 0 20 20" fill="currentColor" xmlns="http://www.w3.org/2000/svg">
<path d="M17.1423 4.16663C16.4806 5.00967 16.02 5.83912 15.7605 6.65497C15.5139 7.47082 15.3907 8.24588 15.3907 8.98015C15.8318 8.98015 16.2795 9.01414 16.7336 9.08213C17.1877 9.15012 17.5899 9.2589 17.9402 9.40847C18.3035 9.55804 18.5955 9.74841 18.816 9.97956C19.0496 10.2107 19.1663 10.4895 19.1663 10.8158V13.7937C19.1663 14.1472 19.0496 14.4531 18.816 14.7115C18.5955 14.9699 18.3035 15.1806 17.9402 15.3438C17.5769 15.507 17.1682 15.6293 16.7141 15.7109C16.26 15.7925 15.8059 15.8333 15.3518 15.8333C14.8717 15.8333 14.3981 15.7925 13.931 15.7109C13.4769 15.6293 13.0682 15.507 12.7049 15.3438C12.3416 15.1806 12.0497 14.9699 11.8291 14.7115C11.6085 14.4531 11.4983 14.1472 11.4983 13.7937V12.0804C11.4983 11.6996 11.5177 11.1761 11.5566 10.5099C11.6085 9.82999 11.7188 9.10932 11.8875 8.34786C12.0691 7.5864 12.3222 6.83174 12.6465 6.08388C12.9709 5.33601 13.4185 4.69693 13.9894 4.16663H17.1423ZM6.51595 4.16663C5.85424 5.00967 5.38715 5.83912 5.11468 6.65497C4.85518 7.47082 4.72544 8.24588 4.72544 8.98015C5.17955 8.98015 5.63367 9.01414 6.08779 9.08213C6.5419 9.15012 6.94412 9.2589 7.29444 9.40847C7.65773 9.55804 7.94966 9.74841 8.17023 9.97956C8.3908 10.2107 8.50109 10.4895 8.50109 10.8158V13.7937C8.50109 14.1472 8.3908 14.4531 8.17023 14.7115C7.94966 14.9699 7.65773 15.1806 7.29444 15.3438C6.93114 15.507 6.52244 15.6293 6.06832 15.7109C5.61421 15.7925 5.1536 15.8333 4.68651 15.8333C4.21942 15.8333 3.75233 15.7925 3.28524 15.7109C2.83112 15.6293 2.42242 15.507 2.05912 15.3438C1.69583 15.1806 1.39741 14.9699 1.16386 14.7115C0.943293 14.4531 0.833008 14.1472 0.833008 13.7937V12.0804C0.833008 11.6996 0.85247 11.1761 0.891394 10.5099C0.943293 9.82999 1.05358 9.10932 1.22225 8.34786C1.4039 7.5864 1.6569 6.83174 1.98127 6.08388C2.30564 5.33601 2.75327 4.69693 3.32416 4.16663H6.51595Z" />
</svg>
