<svg xmlns="http://www.w3.org/2000/svg" preserveAspectRatio="xMidYMid meet" viewBox="0 0 16 16">
	<path fill="currentColor" fill-rule="evenodd"
		d="m3.221 3.739l2.261 2.269L7.7 3.784l-.7-.7l-1.012 1.007l-.008-1.6a.523.523 0 0 1 .5-.526H8V1H6.48A1.482 1.482 0 0 0 5 2.489V4.1L3.927 3.033l-.706.706zm6.67 1.794h.01c.183.311.451.467.806.467c.393 0 .706-.168.94-.503c.236-.335.353-.78.353-1.333c0-.511-.1-.913-.301-1.207c-.201-.295-.488-.442-.86-.442c-.405 0-.718.194-.938.581h-.01V1H9v4.919h.89v-.386zm-.015-1.061v-.34c0-.248.058-.448.175-.601a.54.54 0 0 1 .445-.23a.49.49 0 0 1 .436.233c.104.154.155.368.155.643c0 .33-.056.587-.169.768a.524.524 0 0 1-.47.27a.495.495 0 0 1-.411-.211a.853.853 0 0 1-.16-.532zM9 12.769c-.256.154-.625.231-1.108.231c-.563 0-1.02-.178-1.369-.533c-.349-.355-.523-.813-.523-1.374c0-.648.186-1.158.56-1.53c.374-.376.875-.563 1.5-.563c.433 0 .746.06.94.179v.998a1.26 1.26 0 0 0-.792-.276c-.325 0-.583.1-.774.298c-.19.196-.283.468-.283.816c0 .338.09.603.272.797c.182.191.431.287.749.287c.282 0 .558-.092.828-.276v.946zM4 7L3 8v6l1 1h7l1-1V8l-1-1H4zm0 1h7v6H4V8z"
		clip-rule="evenodd" />
</svg>