<svg viewBox="0 0 20 20" fill="none" xmlns="http://www.w3.org/2000/svg">
<path d="M8.8737 14.0169C9.96094 14.0169 10.9635 13.6654 11.7839 13.0794L14.8698 16.1654C15.013 16.3086 15.2018 16.3802 15.4036 16.3802C15.8268 16.3802 16.1263 16.0547 16.1263 15.638C16.1263 15.4427 16.0612 15.2604 15.918 15.1172L12.8516 12.0443C13.4961 11.1979 13.8802 10.1497 13.8802 9.01042C13.8802 6.25651 11.6276 4.00391 8.8737 4.00391C6.11979 4.00391 3.86719 6.25651 3.86719 9.01042C3.86719 11.7643 6.11979 14.0169 8.8737 14.0169ZM8.8737 12.9362C6.72526 12.9362 4.94792 11.1589 4.94792 9.01042C4.94792 6.86198 6.72526 5.08464 8.8737 5.08464C11.0221 5.08464 12.7995 6.86198 12.7995 9.01042C12.7995 11.1589 11.0221 12.9362 8.8737 12.9362Z"/>
</svg>
