<svg viewBox="0 0 20 20" fill="none" xmlns="http://www.w3.org/2000/svg">
  <path
    d="M4 3H16C16.3978 3 16.7794 3.15526 17.0607 3.43163C17.342 3.708 17.5 4.08284 17.5 4.47368V15.5263C17.5 15.9172 17.342 16.292 17.0607 16.5684C16.7794 16.8447 16.3978 17 16 17H4C3.60218 17 3.22064 16.8447 2.93934 16.5684C2.65804 16.292 2.5 15.9172 2.5 15.5263V4.47368C2.5 4.08284 2.65804 3.708 2.93934 3.43163C3.22064 3.15526 3.60218 3 4 3ZM4 5.94737V8.15789H7V5.94737H4ZM8.5 5.94737V8.15789H11.5V5.94737H8.5ZM16 8.15789V5.94737H13V8.15789H16ZM4 9.63158V11.8421H7V9.63158H4ZM4 15.5263H7V13.3158H4V15.5263ZM8.5 9.63158V11.8421H11.5V9.63158H8.5ZM8.5 15.5263H11.5V13.3158H8.5V15.5263ZM16 15.5263V13.3158H13V15.5263H16ZM16 9.63158H13V11.8421H16V9.63158Z" />
</svg>