<svg viewBox="0 0 20 20" fill="none" xmlns="http://www.w3.org/2000/svg">
<path d="M8.5 9.61905C8.5 8.78095 9.175 8.09524 10 8.09524C10.825 8.09524 11.5 8.78095 11.5 9.61905C11.5 10.4571 10.825 11.1429 10 11.1429C9.175 11.1429 8.5 10.4571 8.5 9.61905ZM6.85 13.9619L5.725 12.8952L6.85 11.7524C6.475 11.1429 6.25 10.381 6.25 9.61905C6.25 8.85714 6.475 8.09524 6.85 7.5619L5.725 6.41905L6.85 5.27619L7.9 6.41905C8.5 6.0381 9.25 5.80952 10 5.80952C10.75 5.80952 11.5 6.0381 12.1 6.41905L13.225 5.27619L14.275 6.34286L13.15 7.48571C13.525 8.09524 13.75 8.85714 13.75 9.61905C13.75 10.381 13.525 11.1429 13.15 11.7524L14.275 12.8952L13.225 13.9619L12.1 12.819C11.5 13.2 10.75 13.4286 10 13.4286C9.25 13.4286 8.5 13.2 7.975 12.819L6.85 13.9619ZM10 7.33333C8.725 7.33333 7.75 8.32381 7.75 9.61905C7.75 10.9143 8.725 11.9048 10 11.9048C11.275 11.9048 12.25 10.9143 12.25 9.61905C12.25 8.32381 11.275 7.33333 10 7.33333ZM16 2C16.825 2 17.5 2.68571 17.5 3.52381V15.7143C17.5 16.5524 16.825 17.2381 16 17.2381H15.25V18H12.25V17.2381H7.75V18H4.75V17.2381H4C3.175 17.2381 2.5 16.5524 2.5 15.7143V3.52381C2.5 2.68571 3.175 2 4 2H16ZM16 15.7143V3.52381H4V15.7143H16Z"/>
</svg>
