<svg viewBox="0 0 20 20" fill="none" xmlns="http://www.w3.org/2000/svg">
  <path
    d="M10.0001 6.66675C10.8842 6.66675 11.732 7.01794 12.3571 7.64306C12.9823 8.26818 13.3334 9.11603 13.3334 10.0001C13.3334 10.8841 12.9823 11.732 12.3571 12.3571C11.732 12.9822 10.8842 13.3334 10.0001 13.3334C9.11606 13.3334 8.26821 12.9822 7.64309 12.3571C7.01797 11.732 6.66678 10.8841 6.66678 10.0001C6.66678 9.11603 7.01797 8.26818 7.64309 7.64306C8.26821 7.01794 9.11606 6.66675 10.0001 6.66675ZM10.0001 8.33342C9.55808 8.33342 9.13416 8.50901 8.8216 8.82157C8.50904 9.13413 8.33344 9.55805 8.33344 10.0001C8.33344 10.4421 8.50904 10.866 8.8216 11.1786C9.13416 11.4912 9.55808 11.6667 10.0001 11.6667C10.4421 11.6667 10.8661 11.4912 11.1786 11.1786C11.4912 10.866 11.6668 10.4421 11.6668 10.0001C11.6668 9.55805 11.4912 9.13413 11.1786 8.82157C10.8661 8.50901 10.4421 8.33342 10.0001 8.33342ZM8.33344 18.3334C8.12511 18.3334 7.95011 18.1834 7.91678 17.9834L7.60844 15.7751C7.08344 15.5667 6.63344 15.2834 6.20011 14.9501L4.12511 15.7917C3.94178 15.8584 3.71678 15.7917 3.61678 15.6084L1.95011 12.7251C1.84178 12.5417 1.89178 12.3167 2.05011 12.1917L3.80844 10.8084L3.75011 10.0001L3.80844 9.16675L2.05011 7.80841C1.89178 7.68341 1.84178 7.45841 1.95011 7.27508L3.61678 4.39175C3.71678 4.20841 3.94178 4.13341 4.12511 4.20842L6.20011 5.04175C6.63344 4.71675 7.08344 4.43341 7.60844 4.22508L7.91678 2.01675C7.95011 1.81675 8.12511 1.66675 8.33344 1.66675H11.6668C11.8751 1.66675 12.0501 1.81675 12.0834 2.01675L12.3918 4.22508C12.9168 4.43341 13.3668 4.71675 13.8001 5.04175L15.8751 4.20842C16.0584 4.13341 16.2834 4.20841 16.3834 4.39175L18.0501 7.27508C18.1584 7.45841 18.1084 7.68341 17.9501 7.80841L16.1918 9.16675L16.2501 10.0001L16.1918 10.8334L17.9501 12.1917C18.1084 12.3167 18.1584 12.5417 18.0501 12.7251L16.3834 15.6084C16.2834 15.7917 16.0584 15.8667 15.8751 15.7917L13.8001 14.9584C13.3668 15.2834 12.9168 15.5667 12.3918 15.7751L12.0834 17.9834C12.0501 18.1834 11.8751 18.3334 11.6668 18.3334H8.33344ZM9.37511 3.33341L9.06678 5.50841C8.06678 5.71675 7.18344 6.25008 6.54178 6.99175L4.53344 6.12508L3.90844 7.20841L5.66678 8.50008C5.33344 9.47508 5.33344 10.5334 5.66678 11.5001L3.90011 12.8001L4.52511 13.8834L6.55011 13.0167C7.19178 13.7501 8.06678 14.2834 9.05844 14.4834L9.36678 16.6667H10.6334L10.9418 14.4917C11.9334 14.2834 12.8084 13.7501 13.4501 13.0167L15.4751 13.8834L16.1001 12.8001L14.3334 11.5084C14.6668 10.5334 14.6668 9.47508 14.3334 8.50008L16.0918 7.20841L15.4668 6.12508L13.4584 6.99175C12.8168 6.25008 11.9334 5.71675 10.9334 5.51675L10.6251 3.33341H9.37511Z" />
</svg>