<svg viewBox="0 0 20 20" fill="none" xmlns="http://www.w3.org/2000/svg">
  <path d="M11.7333 12.9917L13.8917 10.8333H5.83333V9.16667H13.8917L11.7333 7.00833L12.9167 5.83333L17.0833 10L12.9167 14.1667L11.7333 12.9917ZM15.8333 2.5C16.2754 2.5 16.6993 2.67559 17.0118 2.98816C17.3244 3.30072 17.5 3.72464 17.5 4.16667V8.05833L15.8333 6.39167V4.16667H4.16667V15.8333H15.8333V13.6083L17.5 11.9417V15.8333C17.5 16.2754 17.3244 16.6993 17.0118 17.0118C16.6993 17.3244 16.2754 17.5 15.8333 17.5H4.16667C3.24167 17.5 2.5 16.75 2.5 15.8333V4.16667C2.5 3.24167 3.24167 2.5 4.16667 2.5H15.8333Z" />
</svg>
  