<svg viewBox="0 0 20 20" fill="none" xmlns="http://www.w3.org/2000/svg">
<path d="M8.33333 10.8333V9.16659H14.1667C14.6269 9.16659 15 9.53968 15 9.99992C15 10.4602 14.6269 10.8333 14.1667 10.8333H8.33333ZM8.33333 15.8333V14.1666H10.8333C11.2936 14.1666 11.6667 14.5397 11.6667 14.9999C11.6667 15.4602 11.2936 15.8333 10.8333 15.8333H8.33333ZM8.33333 5.83325V4.16659H17.5C17.9602 4.16659 18.3333 4.53968 18.3333 4.99992C18.3333 5.46016 17.9602 5.83325 17.5 5.83325H8.33333ZM5 14.1666H7.08333L4.16667 17.0833L1.25 14.1666H3.33333V3.33325H5V14.1666Z"/>
</svg>
