<svg viewBox="0 0 20 20" fill="none" xmlns="http://www.w3.org/2000/svg">
<path d="M13.525 15L10 12.875L6.47502 15L7.40835 10.9916L4.30002 8.29996L8.40002 7.94996L10 4.16663L11.6 7.94163L15.7 8.29163L12.5917 10.9833L13.525 15ZM10 1.66663C5.39169 1.66663 1.66669 5.41663 1.66669 9.99996C1.66669 12.2101 2.54466 14.3297 4.10746 15.8925C4.88129 16.6663 5.79994 17.2802 6.81099 17.699C7.82204 18.1177 8.90567 18.3333 10 18.3333C12.2102 18.3333 14.3298 17.4553 15.8926 15.8925C17.4554 14.3297 18.3334 12.2101 18.3334 9.99996C18.3334 8.90561 18.1178 7.82198 17.699 6.81093C17.2802 5.79988 16.6664 4.88122 15.8926 4.1074C15.1188 3.33358 14.2001 2.71975 13.189 2.30096C12.178 1.88217 11.0944 1.66663 10 1.66663V1.66663Z"/>
</svg>
