<svg viewBox="0 0 20 20" fill="none" xmlns="http://www.w3.org/2000/svg">
<path d="M3.33342 3.33325C2.89139 3.33325 2.46746 3.50885 2.1549 3.82141C1.84234 4.13397 1.66675 4.55789 1.66675 4.99992V14.1666C1.66675 14.6086 1.84234 15.0325 2.1549 15.3451C2.46746 15.6577 2.89139 15.8333 3.33342 15.8333V16.6666H5.00008V15.8333H14.1667V16.6666H15.8334V15.8333C16.2754 15.8333 16.6994 15.6577 17.0119 15.3451C17.3245 15.0325 17.5001 14.6086 17.5001 14.1666V13.3333H18.3334V11.6666H17.5001V7.49992H18.3334V5.83325H17.5001V4.99992C17.5001 4.55789 17.3245 4.13397 17.0119 3.82141C16.6994 3.50885 16.2754 3.33325 15.8334 3.33325H3.33342ZM3.33342 4.99992H15.8334V14.1666H3.33342V4.99992ZM11.2501 6.24992C10.366 6.24992 9.51818 6.60111 8.89306 7.22623C8.26794 7.85135 7.91675 8.6992 7.91675 9.58325C7.91675 10.4673 8.26794 11.3152 8.89306 11.9403C9.51818 12.5654 10.366 12.9166 11.2501 12.9166C12.1341 12.9166 12.982 12.5654 13.6071 11.9403C14.2322 11.3152 14.5834 10.4673 14.5834 9.58325C14.5834 8.6992 14.2322 7.85135 13.6071 7.22623C12.982 6.60111 12.1341 6.24992 11.2501 6.24992ZM4.16675 7.49992V11.6666H5.83342V7.49992H4.16675ZM11.2501 7.91658C11.6921 7.91658 12.116 8.09218 12.4286 8.40474C12.7412 8.7173 12.9167 9.14122 12.9167 9.58325C12.9167 10.0253 12.7412 10.4492 12.4286 10.7618C12.116 11.0743 11.6921 11.2499 11.2501 11.2499C10.8081 11.2499 10.3841 11.0743 10.0716 10.7618C9.75901 10.4492 9.58342 10.0253 9.58342 9.58325C9.58342 9.14122 9.75901 8.7173 10.0716 8.40474C10.3841 8.09218 10.8081 7.91658 11.2501 7.91658Z"/>
</svg>
