<svg xmlns="http://www.w3.org/2000/svg" viewBox="0 0 20 20" fill="currentColor" shape-rendering="geometricPrecision" text-rendering="geometricPrecision" image-rendering="optimizeQuality" fill-rule="evenodd" clip-rule="evenodd" viewBox="0 0 512 426.85"><path fill-rule="nonzero" d="M174.2 125.3 266.74 0h76.65L212.88 173.99l135.9 180.45H272l-97.84-131.8-97.52 131.8H0L135.88 174 5.07 0h77.04l92.09 125.3zm322.38 301.55H373.5v-24.14l2.43-6.43c5.45-6.3 60.34-69.48 60.34-69.63 2.94-3.38 5.44-6.34 7.47-8.87 2.25-2.78 4.35-5.51 6.3-8.17 1.95-2.65 3.64-5.1 5.08-7.31 1.48-2.29 2.77-4.43 3.84-6.39.98-1.81 1.89-3.66 2.69-5.53.74-1.73 1.34-3.4 1.8-4.96.4-1.38.72-2.83.95-4.32.2-1.32.31-2.63.31-3.91 0-4.79-.59-8.86-1.77-12.22-1.05-3-2.61-5.55-4.66-7.63-.9-.89-1.97-1.73-3.21-2.49v-.05c-1.25-.77-2.64-1.42-4.13-1.94-1.77-.58-3.74-1.04-5.92-1.36-2.22-.33-4.72-.49-7.5-.49-2.97 0-5.62.19-7.92.56-2.27.37-4.37.92-6.29 1.64-1.74.66-3.37 1.49-4.84 2.46h-.04c-1.37.9-2.67 2.01-3.91 3.31a29.328 29.328 0 0 0-3.45 4.53 28.145 28.145 0 0 0-2.47 5.1c-.67 1.89-1.19 3.95-1.55 6.16-.34 2.15-.52 4.62-.52 7.39v15.42h-32.44l-2.49-8.39c-1.6-5.43-2.02-10.97-1.59-16.39.46-5.81 1.93-11.59 3.94-16.98 1.5-4.03 3.43-7.92 5.78-11.67v-.04c2.31-3.68 5-7.15 8.05-10.4 3.16-3.38 6.62-6.37 10.36-8.93 3.67-2.51 7.68-4.64 12.03-6.37a67.26 67.26 0 0 1 13.17-3.73v-.05c4.52-.8 9.25-1.21 14.18-1.21 4.38 0 8.75.34 13.07 1.03 4.33.69 8.4 1.71 12.19 3.05 3.9 1.38 7.65 3.18 11.24 5.36h.05c3.51 2.13 6.78 4.63 9.79 7.46 3.1 2.9 5.85 6.14 8.22 9.69 2.4 3.58 4.36 7.37 5.88 11.34 1.46 3.86 2.58 8.02 3.33 12.45.72 4.33 1.09 8.8 1.09 13.39 0 3.11-.28 6.39-.84 9.83-.52 3.22-1.31 6.5-2.35 9.8-.94 3.08-2.21 6.28-3.74 9.55a92.644 92.644 0 0 1-5.12 9.43l-.05.09c-1.97 3.13-3.91 6.09-5.82 8.84-2.02 2.9-4.26 5.98-6.7 9.2-2.15 2.83-4.71 6.08-7.67 9.73-2.77 3.42-5.63 6.85-8.57 10.26l-30.31 35.42H512v37.51h-15.42z"/></svg>