<svg viewBox="0 0 20 20" fill="none" xmlns="http://www.w3.org/2000/svg">
<path d="M12.4619 7.20194L17.8611 7.66001C18.0374 7.67496 18.1089 7.89462 17.9751 8.01046L13.8747 11.5627C13.8185 11.6113 13.794 11.687 13.8108 11.7593L15.0424 17.0385C15.0826 17.2108 14.8957 17.3466 14.7443 17.2552L10.1034 14.4541C10.0399 14.4158 9.96029 14.4158 9.89674 14.4541L5.25512 17.2556C5.10377 17.347 4.91701 17.2114 4.95694 17.0392L6.18122 11.759C6.19795 11.6869 6.17343 11.6114 6.11748 11.5628L2.02429 8.01039C1.89074 7.89448 1.96228 7.67501 2.13848 7.66006L7.53824 7.20194C7.61216 7.19567 7.67653 7.149 7.70548 7.08071L9.81594 2.10122C9.88486 1.93862 10.1153 1.93862 10.1842 2.10122L12.2947 7.08071C12.3236 7.14901 12.388 7.19567 12.4619 7.20194Z"/>
</svg>
