<svg viewBox="0 0 20 20" fill="currentColor" xmlns="http://www.w3.org/2000/svg">
<path fill-rule="evenodd" clip-rule="evenodd" d="M13.4681 5.3842C13.4085 5.49228 13.3461 5.57175 13.2806 5.62262C13.2151 5.67348 13.1318 5.69891 13.0307 5.69891C12.9235 5.69891 12.8015 5.64805 12.6647 5.54632C12.5278 5.43824 12.3552 5.32062 12.1469 5.19346C11.9446 5.05995 11.7006 4.94233 11.4149 4.8406C11.1293 4.73252 10.7871 4.67847 10.3884 4.67847C10.0134 4.67847 9.68315 4.73252 9.3975 4.8406C9.1178 4.94233 8.88273 5.08538 8.69229 5.26975C8.50185 5.44777 8.35605 5.66076 8.25488 5.90872C8.15967 6.15032 8.11206 6.41417 8.11206 6.70027C8.11206 7.06903 8.19835 7.37421 8.37093 7.6158C8.54946 7.8574 8.78156 8.06403 9.06721 8.23569C9.22513 8.3306 9.39488 8.4187 9.57645 8.5H6.66989C6.64688 8.45106 6.62474 8.40111 6.60345 8.35014C6.43087 7.93052 6.34458 7.41553 6.34458 6.80518C6.34458 6.31562 6.43384 5.84196 6.61238 5.3842C6.79091 4.92643 7.04978 4.52271 7.389 4.17302C7.73416 3.81698 8.15669 3.53406 8.65658 3.32425C9.15648 3.10808 9.72778 3 10.3705 3C11.0906 3 11.7512 3.12398 12.3522 3.37193C12.9592 3.61353 13.4859 3.96321 13.9322 4.42098L13.4681 5.3842ZM8.14789 10H12.9828H16V11.5H14.0405C14.1469 11.8307 14.2 12.2144 14.2 12.6512C14.2 13.2552 14.1019 13.8211 13.9055 14.3488C13.715 14.8765 13.4353 15.3374 13.0664 15.7316C12.6974 16.1258 12.2421 16.4373 11.7006 16.6662C11.165 16.8887 10.555 17 9.87061 17C9.45998 17 9.06126 16.9555 8.67444 16.8665C8.28761 16.7838 7.92162 16.6662 7.57646 16.5136C7.23129 16.3547 6.90696 16.1671 6.60345 15.951C6.30589 15.7284 6.03809 15.4805 5.80005 15.2071L6.34458 14.2343C6.39814 14.158 6.46062 14.0945 6.53204 14.0436C6.6094 13.9927 6.69569 13.9673 6.79091 13.9673C6.91588 13.9673 7.05871 14.0372 7.21939 14.1771C7.38602 14.317 7.58836 14.4728 7.8264 14.6444C8.0704 14.8097 8.35903 14.9623 8.69229 15.1022C9.0315 15.2421 9.44213 15.312 9.92417 15.312C10.3169 15.312 10.6681 15.2579 10.9775 15.1499C11.287 15.0354 11.5459 14.8765 11.7541 14.673C11.9684 14.4632 12.132 14.2121 12.2451 13.9196C12.3582 13.6272 12.4147 13.3029 12.4147 12.9469C12.4147 12.5463 12.3284 12.2189 12.1558 11.9646C12.0376 11.7903 11.8928 11.6355 11.7214 11.5H4V10H8.14789Z"/>
</svg>
