<svg viewBox="0 0 20 20" fill="none" xmlns="http://www.w3.org/2000/svg">
  <path d="M9.99999 15C11.3261 15 12.5978 14.4732 13.5355 13.5355C14.4732 12.5979 15 11.3261 15 10C15 9.16666 14.7917 8.35833 14.4167 7.66667L15.6333 6.45C16.2833 7.475 16.6667 8.69166 16.6667 10C16.6667 11.7681 15.9643 13.4638 14.714 14.714C13.4638 15.9643 11.7681 16.6667 9.99999 16.6667V19.1667L6.66666 15.8333L9.99999 12.5V15ZM9.99999 3.33333V0.833333L13.3333 4.16667L9.99999 7.5V5C8.67391 5 7.40214 5.52678 6.46446 6.46447C5.52677 7.40215 4.99999 8.67392 4.99999 10C4.99999 10.8333 5.20832 11.6417 5.58332 12.3333L4.36666 13.55C3.71666 12.525 3.33332 11.3083 3.33332 10C3.33332 8.23189 4.0357 6.5362 5.28594 5.28595C6.53619 4.03571 8.23188 3.33333 9.99999 3.33333Z" />
</svg>
  