<svg viewBox="0 0 20 20" fill="none" xmlns="http://www.w3.org/2000/svg">
<path d="M14.6667 13.3149C14.0756 13.3149 13.5467 13.556 13.1422 13.9337L7.59667 10.5987C7.63556 10.4139 7.66667 10.229 7.66667 10.0362C7.66667 9.8433 7.63556 9.65846 7.59667 9.47363L13.08 6.17077C13.5 6.57258 14.0522 6.8217 14.6667 6.8217C15.2855 6.8217 15.879 6.5677 16.3166 6.11558C16.7542 5.66345 17 5.05025 17 4.41085C17 3.77145 16.7542 3.15824 16.3166 2.70612C15.879 2.254 15.2855 2 14.6667 2C14.0478 2 13.4543 2.254 13.0168 2.70612C12.5792 3.15824 12.3333 3.77145 12.3333 4.41085C12.3333 4.60372 12.3644 4.78855 12.4033 4.97338L6.92 8.27624C6.5 7.87444 5.94778 7.62531 5.33333 7.62531C4.71449 7.62531 4.121 7.87931 3.68342 8.33144C3.24583 8.78356 3 9.39677 3 10.0362C3 10.6756 3.24583 11.2888 3.68342 11.7409C4.121 12.193 4.71449 12.447 5.33333 12.447C5.94778 12.447 6.5 12.1979 6.92 11.7961L12.4578 15.1311C12.4189 15.2998 12.3956 15.4766 12.3956 15.6615C12.3956 16.9553 13.4144 18 14.6667 18C15.9189 18 16.9378 16.9553 16.9378 15.6615C16.9378 15.0391 16.6985 14.4423 16.2726 14.0022C15.8467 13.5621 15.269 13.3149 14.6667 13.3149Z"/>
</svg>
