<svg viewBox="0 0 20 20" fill="none" xmlns="http://www.w3.org/2000/svg">
  <path fill-rule="evenodd" clip-rule="evenodd"
    d="M4.28571 3.6H15.7143C16.093 3.6 16.4 3.907 16.4 4.28571V15.7143C16.4 16.093 16.093 16.4 15.7143 16.4H4.28571C3.907 16.4 3.6 16.093 3.6 15.7143V4.28571C3.6 3.907 3.907 3.6 4.28571 3.6ZM2 4.28571C2 3.02335 3.02335 2 4.28571 2H15.7143C16.9767 2 18 3.02335 18 4.28571V15.7143C18 16.9767 16.9767 18 15.7143 18H4.28571C3.02335 18 2 16.9767 2 15.7143V4.28571ZM11.9371 9.54011V13.8329H13.5382V9.54011C13.5382 7.60033 11.9254 6.02783 9.93584 6.02783C7.94632 6.02783 6.3335 7.60033 6.3335 9.54011V13.8329H7.93454V9.54011C7.93454 8.46246 8.83055 7.58885 9.93584 7.58885C11.0411 7.58885 11.9371 8.46246 11.9371 9.54011Z" />
</svg>