<svg xmlns="http://www.w3.org/2000/svg" viewBox="0 0 20 20" fill="currentColor" shape-rendering="geometricPrecision" text-rendering="geometricPrecision" image-rendering="optimizeQuality" fill-rule="evenodd" clip-rule="evenodd" viewBox="0 0 512 475.8"><path fill-rule="nonzero" d="m174.2 246.66 92.54-125.3h76.65L212.88 295.35l135.9 180.45H272L174.16 344 76.63 475.8H0l135.89-180.43L5.07 121.36h77.04l92.09 125.3zm322.38-33.24H373.5v-24.13l2.42-6.43c5.46-6.29 60.35-69.48 60.35-69.63 2.94-3.38 5.44-6.34 7.48-8.87 2.24-2.78 4.34-5.51 6.29-8.17 1.95-2.65 3.64-5.09 5.08-7.31 1.49-2.29 2.77-4.43 3.84-6.39a63.99 63.99 0 0 0 2.69-5.53c.74-1.74 1.34-3.39 1.8-4.96.41-1.38.73-2.83.95-4.32.2-1.32.31-2.63.31-3.91 0-4.79-.59-8.86-1.77-12.22-1.05-3-2.61-5.55-4.66-7.63-.9-.89-1.97-1.73-3.2-2.49v-.05c-1.26-.77-2.64-1.42-4.14-1.94-1.76-.58-3.74-1.04-5.92-1.36-2.22-.33-4.72-.49-7.5-.49-2.98 0-5.62.19-7.92.56-2.26.37-4.37.92-6.29 1.64-1.75.66-3.37 1.49-4.84 2.46h-.04c-1.36.9-2.67 2.01-3.9 3.31-1.34 1.43-2.5 2.95-3.46 4.53a27.446 27.446 0 0 0-2.46 5.1c-.68 1.89-1.2 3.95-1.56 6.16-.34 2.15-.51 4.62-.51 7.39v15.42h-32.45l-2.48-8.39c-1.61-5.43-2.03-10.97-1.6-16.39.46-5.81 1.94-11.59 3.94-16.98 1.5-4.03 3.43-7.92 5.78-11.67v-.04c2.32-3.68 5-7.15 8.05-10.4 3.16-3.38 6.62-6.36 10.36-8.93 3.67-2.51 7.69-4.64 12.03-6.37a67.26 67.26 0 0 1 13.17-3.73v-.05C427.86.41 432.59 0 437.52 0c4.38 0 8.74.34 13.08 1.03 4.32.69 8.39 1.71 12.18 3.05 3.9 1.38 7.65 3.18 11.25 5.36h.04c3.51 2.13 6.78 4.63 9.79 7.46 3.11 2.9 5.85 6.14 8.23 9.69 2.39 3.58 4.35 7.37 5.87 11.34 1.47 3.86 2.58 8.02 3.33 12.45.72 4.33 1.09 8.8 1.09 13.39 0 3.11-.28 6.39-.84 9.83-.51 3.23-1.3 6.5-2.35 9.8-.94 3.08-2.2 6.27-3.74 9.55a92.644 92.644 0 0 1-5.12 9.43l-.05.09c-1.96 3.13-3.91 6.09-5.82 8.84-2.02 2.9-4.26 5.98-6.7 9.2-2.15 2.83-4.71 6.08-7.67 9.74-2.77 3.41-5.63 6.84-8.57 10.25l-30.3 35.42H512v37.5h-15.42z"/></svg>