<svg viewBox="0 0 20 20" fill="none" xmlns="http://www.w3.org/2000/svg">
  <path
    d="M12.0039 9.60378V13.8966H13.6049V9.60378C13.6049 7.664 11.9921 6.0915 10.0026 6.0915C8.01305 6.0915 6.40023 7.664 6.40023 9.60378V13.8966H8.00127V9.60378C8.00127 8.52613 8.89728 7.65252 10.0026 7.65252C11.1079 7.65252 12.0039 8.52613 12.0039 9.60378Z" />
  <path fill-rule="evenodd" clip-rule="evenodd"
    d="M1.66675 3.33317C1.66675 2.4127 2.41294 1.6665 3.33341 1.6665H16.6667C17.5872 1.6665 18.3334 2.4127 18.3334 3.33317V16.6665C18.3334 17.587 17.5872 18.3332 16.6667 18.3332H3.33342C2.41294 18.3332 1.66675 17.587 1.66675 16.6665V3.33317ZM3.33341 2.49984H16.6667C17.127 2.49984 17.5001 2.87293 17.5001 3.33317V16.6665C17.5001 17.1267 17.127 17.4998 16.6667 17.4998H3.33342C2.87318 17.4998 2.50008 17.1267 2.50008 16.6665V3.33317C2.50008 2.87293 2.87318 2.49984 3.33341 2.49984Z" />
</svg>