<svg viewBox="0 0 20 20" fill="none" xmlns="http://www.w3.org/2000/svg">
<path fill-rule="evenodd" clip-rule="evenodd" d="M3.33692 10.0049C3.33692 13.6807 6.32919 16.6729 10.0049 16.6729C13.6807 16.6729 16.6729 13.6807 16.6729 10.0049C16.6729 6.32919 13.6807 3.33692 10.0049 3.33692C6.32919 3.33692 3.33692 6.32919 3.33692 10.0049ZM6.81526 2.30439C7.8265 1.88551 8.91035 1.66992 10.0049 1.66992C11.0995 1.66992 12.1833 1.88551 13.1946 2.30439C14.2058 2.72326 15.1247 3.33721 15.8987 4.11119C16.6726 4.88516 17.2866 5.80401 17.7055 6.81526C18.1243 7.8265 18.3399 8.91035 18.3399 10.0049C18.3399 12.2155 17.4618 14.3355 15.8987 15.8987C14.3355 17.4618 12.2155 18.3399 10.0049 18.3399C8.91035 18.3399 7.8265 18.1243 6.81526 17.7055C5.80401 17.2866 4.88516 16.6726 4.11119 15.8987C2.54807 14.3355 1.66992 12.2155 1.66992 10.0049C1.66992 7.79434 2.54807 5.6743 4.11119 4.11119C4.88516 3.33721 5.80401 2.72326 6.81526 2.30439ZM9.23427 5.29993H10.7655L14.3011 13.6999H13.0345C12.8929 13.6999 12.758 13.6661 12.6451 13.583C12.5443 13.5087 12.4698 13.4115 12.4246 13.2947L11.728 11.5662H8.2718L7.57506 13.2952C7.53177 13.4056 7.45553 13.4972 7.36075 13.5728L7.35587 13.5767C7.24206 13.6617 7.10819 13.6999 6.96532 13.6999H5.69873L9.23427 5.29993ZM9.99935 7.2813C9.97234 7.35991 9.94513 7.43347 9.9177 7.50191L8.78049 10.3194H11.2251L10.083 7.49302C10.055 7.42715 10.0271 7.35655 9.99935 7.2813Z"/>
</svg>
