<svg viewBox="0 0 20 20" fill="none" xmlns="http://www.w3.org/2000/svg">
<path d="M14.5833 10C14.2518 10 13.9339 9.8683 13.6995 9.63388C13.465 9.39946 13.3333 9.08152 13.3333 8.75C13.3333 8.41848 13.465 8.10054 13.6995 7.86612C13.9339 7.6317 14.2518 7.5 14.5833 7.5C14.9149 7.5 15.2328 7.6317 15.4672 7.86612C15.7016 8.10054 15.8333 8.41848 15.8333 8.75C15.8333 9.08152 15.7016 9.39946 15.4672 9.63388C15.2328 9.8683 14.9149 10 14.5833 10ZM12.0833 6.66667C11.7518 6.66667 11.4339 6.53497 11.1994 6.30055C10.965 6.06613 10.8333 5.74819 10.8333 5.41667C10.8333 5.08515 10.965 4.7672 11.1994 4.53278C11.4339 4.29836 11.7518 4.16667 12.0833 4.16667C12.4149 4.16667 12.7328 4.29836 12.9672 4.53278C13.2016 4.7672 13.3333 5.08515 13.3333 5.41667C13.3333 5.74819 13.2016 6.06613 12.9672 6.30055C12.7328 6.53497 12.4149 6.66667 12.0833 6.66667ZM7.91667 6.66667C7.58515 6.66667 7.2672 6.53497 7.03278 6.30055C6.79836 6.06613 6.66667 5.74819 6.66667 5.41667C6.66667 5.08515 6.79836 4.7672 7.03278 4.53278C7.2672 4.29836 7.58515 4.16667 7.91667 4.16667C8.24819 4.16667 8.56613 4.29836 8.80055 4.53278C9.03497 4.7672 9.16667 5.08515 9.16667 5.41667C9.16667 5.74819 9.03497 6.06613 8.80055 6.30055C8.56613 6.53497 8.24819 6.66667 7.91667 6.66667ZM5.41667 10C5.08515 10 4.7672 9.8683 4.53278 9.63388C4.29836 9.39946 4.16667 9.08152 4.16667 8.75C4.16667 8.41848 4.29836 8.10054 4.53278 7.86612C4.7672 7.6317 5.08515 7.5 5.41667 7.5C5.74819 7.5 6.06613 7.6317 6.30055 7.86612C6.53497 8.10054 6.66667 8.41848 6.66667 8.75C6.66667 9.08152 6.53497 9.39946 6.30055 9.63388C6.06613 9.8683 5.74819 10 5.41667 10ZM10 2.5C8.01088 2.5 6.10322 3.29018 4.6967 4.6967C3.29018 6.10322 2.5 8.01088 2.5 10C2.5 11.9891 3.29018 13.8968 4.6967 15.3033C6.10322 16.7098 8.01088 17.5 10 17.5C10.3315 17.5 10.6495 17.3683 10.8839 17.1339C11.1183 16.8995 11.25 16.5815 11.25 16.25C11.25 15.925 11.125 15.6333 10.925 15.4167C10.7333 15.1917 10.6083 14.9 10.6083 14.5833C10.6083 14.2518 10.74 13.9339 10.9745 13.6995C11.2089 13.465 11.5268 13.3333 11.8583 13.3333H13.3333C14.4384 13.3333 15.4982 12.8943 16.2796 12.1129C17.061 11.3315 17.5 10.2717 17.5 9.16667C17.5 5.48333 14.1417 2.5 10 2.5Z"/>
</svg>
