<svg viewBox="0 0 20 20" fill="none" xmlns="http://www.w3.org/2000/svg">
<path d="M10 2C11.0506 2 12.0909 2.20693 13.0615 2.60896C14.0321 3.011 14.914 3.60028 15.6569 4.34315C16.3997 5.08601 16.989 5.96793 17.391 6.93853C17.7931 7.90914 18 8.94943 18 10C18 12.1217 17.1571 14.1566 15.6569 15.6569C14.1566 17.1571 12.1217 18 10 18C8.94943 18 7.90914 17.7931 6.93853 17.391C5.96793 16.989 5.08601 16.3997 4.34315 15.6569C2.84285 14.1566 2 12.1217 2 10C2 7.87827 2.84285 5.84344 4.34315 4.34315C5.84344 2.84285 7.87827 2 10 2ZM10 3.6C8.30261 3.6 6.67475 4.27428 5.47452 5.47452C4.27428 6.67475 3.6 8.30261 3.6 10C3.6 11.6974 4.27428 13.3253 5.47452 14.5255C6.67475 15.7257 8.30261 16.4 10 16.4C11.6974 16.4 13.3253 15.7257 14.5255 14.5255C15.7257 13.3253 16.4 11.6974 16.4 10C16.4 8.30261 15.7257 6.67475 14.5255 5.47452C13.3253 4.27428 11.6974 3.6 10 3.6ZM13.92 6.08C14.96 7.04 15.6 8.48 15.6 10C15.6 11.52 14.88 12.88 13.92 13.92C12.96 14.96 11.52 15.6 10 15.6C8.48 15.6 7.12 14.96 6.08 13.92L10 10V4.4C11.52 4.4 12.96 5.04 13.92 6.08Z"/>
</svg>
