<svg viewBox="0 0 20 20" fill="none" xmlns="http://www.w3.org/2000/svg">
<path d="M12.5001 13.3333H15.8334V14.9999H12.5001V13.3333ZM12.5001 6.66658H18.3334V8.33325H12.5001V6.66658ZM12.5001 9.99992H17.5001V11.6666H12.5001V9.99992ZM9.16675 8.33325V14.9999H4.16675V8.33325H9.16675ZM10.8334 6.66658H2.50008V14.9999C2.50008 15.4419 2.67568 15.8659 2.98824 16.1784C3.3008 16.491 3.72472 16.6666 4.16675 16.6666H9.16675C9.60878 16.6666 10.0327 16.491 10.3453 16.1784C10.6578 15.8659 10.8334 15.4419 10.8334 14.9999V6.66658ZM11.6667 4.16659H9.16675L8.33342 3.33325H5.00008L4.16675 4.16659H1.66675V5.83325H11.6667V4.16659Z" />
</svg>
