<svg viewBox="0 0 20 20" fill="currentColor" xmlns="http://www.w3.org/2000/svg">
<path fill-rule="evenodd" clip-rule="evenodd" d="M11.3322 12.7078C10.94 12.8675 10.496 12.9474 10 12.9474C9.50404 12.9474 9.05998 12.8675 8.66782 12.7078C8.27566 12.5482 7.94406 12.3252 7.67301 12.0389C7.40196 11.7471 7.19435 11.4002 7.05017 10.9983C6.91176 10.5964 6.84256 10.1531 6.84256 9.66862V2.5H5V9.67688C5 10.3706 5.11534 11.012 5.34602 11.6012C5.5767 12.1903 5.9083 12.6996 6.34083 13.129C6.77336 13.5585 7.29815 13.8944 7.91522 14.1366C8.53229 14.3789 9.22722 14.5 10 14.5C10.7728 14.5 11.4677 14.3789 12.0848 14.1366C12.7018 13.8944 13.2266 13.5585 13.6592 13.129C14.0917 12.6996 14.4233 12.1903 14.654 11.6012C14.8847 11.012 15 10.3706 15 9.67688V2.5H13.1661V9.67688C13.1661 10.1614 13.094 10.6046 12.9498 11.0065C12.8057 11.403 12.598 11.7471 12.327 12.0389C12.0559 12.3252 11.7243 12.5482 11.3322 12.7078ZM15 16H5V17.5H15V16Z"/>
</svg>
