<svg viewBox="0 0 20 20" fill="none" xmlns="http://www.w3.org/2000/svg">
    <path d="M12.4999 3.33325C11.6159 3.33325 10.768 3.68444 10.1429 4.30956C9.51777 4.93468 9.16659 5.78253 9.16659 6.66658C9.16659 7.55064 9.51777 8.39849 10.1429 9.02361C10.768 9.64873 11.6159 9.99992 12.4999 9.99992C13.384 9.99992 14.2318 9.64873 14.8569 9.02361C15.4821 8.39849 15.8333 7.55064 15.8333 6.66658C15.8333 5.78253 15.4821 4.93468 14.8569 4.30956C14.2318 3.68444 13.384 3.33325 12.4999 3.33325ZM12.4999 4.91658C13.4666 4.91658 14.2499 5.69992 14.2499 6.66658C14.2499 7.63325 13.4666 8.41658 12.4999 8.41658C12.0358 8.41658 11.5907 8.23221 11.2625 7.90402C10.9343 7.57583 10.7499 7.13071 10.7499 6.66658C10.7499 6.20246 10.9343 5.75734 11.2625 5.42915C11.5907 5.10096 12.0358 4.91658 12.4999 4.91658ZM3.33325 5.83325V8.33325H0.833252V9.99992H3.33325V12.4999H4.99992V9.99992H7.49992V8.33325H4.99992V5.83325H3.33325ZM12.4999 10.8333C10.2749 10.8333 5.83325 11.9416 5.83325 14.1666V16.6666H19.1666V14.1666C19.1666 11.9416 14.7249 10.8333 12.4999 10.8333ZM12.4999 12.4166C14.9749 12.4166 17.5833 13.6332 17.5833 14.1666V15.0832H7.41659V14.1666C7.41659 13.6332 9.99992 12.4166 12.4999 12.4166Z"/>
</svg>
