<svg viewBox="0 0 20 20" fill="#fff" xmlns="http://www.w3.org/2000/svg">
  <path
    d="M10.8333 10.8337H9.16663V5.83366H10.8333V10.8337ZM10.8333 14.167H9.16663V12.5003H10.8333V14.167ZM9.99996 1.66699C8.90561 1.66699 7.82198 1.88254 6.81093 2.30133C5.79988 2.72012 4.88122 3.33395 4.1074 4.10777C2.5446 5.67057 1.66663 7.79019 1.66663 10.0003C1.66663 12.2105 2.5446 14.3301 4.1074 15.8929C4.88122 16.6667 5.79988 17.2805 6.81093 17.6993C7.82198 18.1181 8.90561 18.3337 9.99996 18.3337C12.2101 18.3337 14.3297 17.4557 15.8925 15.8929C17.4553 14.3301 18.3333 12.2105 18.3333 10.0003C18.3333 8.90598 18.1177 7.82234 17.699 6.8113C17.2802 5.80025 16.6663 4.88159 15.8925 4.10777C15.1187 3.33395 14.2 2.72012 13.189 2.30133C12.1779 1.88254 11.0943 1.66699 9.99996 1.66699Z"
    fill="currentColor" />
</svg>