<svg width="120" height="120" viewBox="0 0 120 120" fill="none" xmlns="http://www.w3.org/2000/svg">
  <circle cx="60" cy="60" r="60" fill="#F4F5F7" />
  <g filter="url(#filter0_d_118_16)">
    <rect x="31" y="31" width="58" height="58" rx="4" fill="white" />
    <rect x="64" y="45" width="17" height="4" rx="2" fill="#BBBEC4" />
    <rect x="64" y="51" width="17" height="4" rx="2" fill="#BBBEC4" />
    <rect x="64" y="57" width="17" height="4" rx="2" fill="#BBBEC4" />
    <path
      d="M54 45C55.9891 45 57.8968 45.7902 59.3033 47.1967C60.7098 48.6032 61.5 50.5109 61.5 52.5C61.5 54.4891 60.7098 56.3968 59.3033 57.8033C57.8968 59.2098 55.9891 60 54 60C52.0109 60 50.1032 59.2098 48.6967 57.8033C47.2902 56.3968 46.5 54.4891 46.5 52.5C46.5 50.5109 47.2902 48.6032 48.6967 47.1967C50.1032 45.7902 52.0109 45 54 45ZM54 61.875C59.0063 61.875 69 64.3687 69 69.375V75H39V69.375C39 64.3687 48.9937 61.875 54 61.875Z"
      fill="#BBBEC4" />
  </g>
  <defs>
    <filter id="filter0_d_118_16" x="19" y="23" width="82" height="82" filterUnits="userSpaceOnUse"
      color-interpolation-filters="sRGB">
      <feFlood flood-opacity="0" result="BackgroundImageFix" />
      <feColorMatrix in="SourceAlpha" type="matrix" values="0 0 0 0 0 0 0 0 0 0 0 0 0 0 0 0 0 0 127 0"
        result="hardAlpha" />
      <feOffset dy="4" />
      <feGaussianBlur stdDeviation="6" />
      <feColorMatrix type="matrix" values="0 0 0 0 0 0 0 0 0 0 0 0 0 0 0 0 0 0 0.16 0" />
      <feBlend mode="normal" in2="BackgroundImageFix" result="effect1_dropShadow_118_16" />
      <feBlend mode="normal" in="SourceGraphic" in2="effect1_dropShadow_118_16" result="shape" />
    </filter>
  </defs>
</svg>