<svg viewBox="0 0 120 120" fill="none" xmlns="http://www.w3.org/2000/svg">
  <circle cx="60" cy="60" r="60" fill="#F4F5F7" />
  <g filter="url(#filter0_d_1572_1023)">
    <rect x="31" y="46.0006" width="58" height="33" fill="#BBBEC4" />
    <path
      d="M89 37.4444V58.6789L79.3333 48.98L66.4444 61.9011L53.5556 49.0122L40.6667 61.9011L31 52.2022V37.4444C31 35.7353 31.679 34.0961 32.8875 32.8875C34.0961 31.679 35.7353 31 37.4444 31H82.5556C84.2647 31 85.9039 31.679 87.1125 32.8875C88.321 34.0961 89 35.7353 89 37.4444ZM79.3333 58.1311L89 67.83V82.5556C89 84.2647 88.321 85.9039 87.1125 87.1125C85.9039 88.321 84.2647 89 82.5556 89H37.4444C35.7353 89 34.0961 88.321 32.8875 87.1125C31.679 85.9039 31 84.2647 31 82.5556V61.3533L40.6667 70.9878L53.5556 58.0989L66.4444 70.9878"
      fill="white" />
  </g>
  <defs>
    <filter id="filter0_d_1572_1023" x="19" y="23" width="82" height="82" filterUnits="userSpaceOnUse"
      color-interpolation-filters="sRGB">
      <feFlood flood-opacity="0" result="BackgroundImageFix" />
      <feColorMatrix in="SourceAlpha" type="matrix" values="0 0 0 0 0 0 0 0 0 0 0 0 0 0 0 0 0 0 127 0"
        result="hardAlpha" />
      <feOffset dy="4" />
      <feGaussianBlur stdDeviation="6" />
      <feColorMatrix type="matrix" values="0 0 0 0 0 0 0 0 0 0 0 0 0 0 0 0 0 0 0.16 0" />
      <feBlend mode="normal" in2="BackgroundImageFix" result="effect1_dropShadow_1572_1023" />
      <feBlend mode="normal" in="SourceGraphic" in2="effect1_dropShadow_1572_1023" result="shape" />
    </filter>
  </defs>
</svg>